<svg width="90" height="90" viewBox="0 0 90 90" fill="none" xmlns="http://www.w3.org/2000/svg">
<circle cx="45" cy="45" r="44.5" stroke="#0C1D36"/>
<path d="M69.9895 35.3715C69.9891 34.5166 69.6528 33.7625 69.0171 33.1913L61.4171 26.3596C60.4718 25.5101 59.2799 24.6418 57.6041 24.6418C57.6036 24.6418 57.6028 24.6418 57.6023 24.6418C55.9255 24.6424 54.7335 25.5119 53.7887 26.3624L46.1936 33.1992C45.5581 33.771 45.2225 34.5253 45.2228 35.3803L45.2263 44.1547H40.1822C41.0951 42.2589 41.731 39.2642 41.0169 37.0217C40.5144 35.4435 39.4076 34.4031 37.8164 34.0128C37.6133 33.9629 37.3987 33.9967 37.2207 34.1064C37.0427 34.216 36.916 34.3925 36.869 34.5962C36.7824 34.9725 36.7022 35.3252 36.627 35.6568C35.6886 39.789 35.568 40.3201 32.9761 42.0141C31.145 43.2109 31.015 43.3654 29.8763 45.0267C29.76 45.1964 29.6316 45.3835 29.488 45.5914C29.0269 46.2584 28.4369 46.5591 27.5796 46.5667L27.5135 46.5668V46.3797C27.5135 45.4067 26.7219 44.6151 25.7487 44.6151H21.7646C20.7916 44.6151 20 45.4067 20 46.3797V63.5929C20 64.5661 20.7916 65.3577 21.7646 65.3577H25.7488C26.7219 65.3577 27.5136 64.5661 27.5136 63.5929V62.7921C27.8657 62.915 28.2178 63.046 28.5803 63.1814C30.3552 63.8443 32.3668 64.5957 35.3536 64.5957H45.7243C46.1664 64.5957 46.5871 64.5034 46.969 64.3378C47.344 64.5065 47.7503 64.5957 48.1668 64.5957H48.1675L67.0679 64.5891C68.6853 64.5884 70.0006 63.2721 69.9999 61.6547L69.9895 35.3715ZM25.9511 63.5929C25.9511 63.7026 25.8585 63.7952 25.7488 63.7952H21.7646C21.6551 63.7952 21.5625 63.7026 21.5625 63.5929V46.3797C21.5625 46.2702 21.6551 46.1776 21.7646 46.1776H25.7488C25.8585 46.1776 25.9511 46.2702 25.9511 46.3797V63.5929ZM35.3536 63.0332C32.6491 63.0332 30.8586 62.3643 29.1271 61.7176C28.6043 61.5224 28.0683 61.3222 27.5137 61.1435V48.1293L27.589 48.1292C28.9537 48.1172 30.0252 47.5623 30.7734 46.4797C30.9184 46.2702 31.0478 46.0814 31.1651 45.9101C32.2153 44.378 32.2153 44.378 33.8311 43.3219C36.9519 41.2822 37.1819 40.2686 38.1507 36.0028C38.165 35.9395 38.1796 35.8752 38.1943 35.8103C38.8382 36.1521 39.2775 36.7089 39.5281 37.4958C40.2652 39.8106 39.1028 43.3744 38.1934 44.4245C37.9932 44.6556 37.9463 44.9824 38.0733 45.2606C38.2005 45.5388 38.4781 45.7172 38.784 45.7172H47.7156C48.586 45.7172 49.2941 46.4253 49.2941 47.2957C49.2941 48.1662 48.586 48.8744 47.7156 48.8744H41.5579C41.1265 48.8744 40.7767 49.2242 40.7767 49.6556C40.7767 50.0871 41.1265 50.4369 41.5579 50.4369H49.0061C49.8765 50.4369 50.5846 51.145 50.5846 52.0154C50.5846 52.8858 49.8765 53.594 49.0061 53.594H41.5579C41.1265 53.594 40.7767 53.9438 40.7767 54.3752C40.7767 54.8067 41.1265 55.1565 41.5579 55.1565H48.1949C49.0653 55.1565 49.7734 55.8646 49.7734 56.735C49.7734 57.6054 49.0653 58.3135 48.1949 58.3135H41.5579C41.1265 58.3135 40.7767 58.6633 40.7767 59.0948C40.7767 59.5262 41.1265 59.876 41.5579 59.876H45.7244C46.5948 59.876 47.303 60.5842 47.303 61.4546C47.303 62.325 46.5949 63.0332 45.7244 63.0332H35.3536ZM67.0673 63.0266L48.4383 63.0331C48.7093 62.5689 48.8654 62.0298 48.8654 61.4546C48.8654 60.8758 48.7081 60.3332 48.434 59.867C50.0547 59.7444 51.3359 58.3865 51.3359 56.735C51.3359 55.9687 51.0601 55.2656 50.6024 54.7198C51.5263 54.1723 52.1471 53.1649 52.1471 52.0154C52.1471 50.729 51.3696 49.6208 50.2601 49.1356C50.6353 48.6181 50.8566 47.9824 50.8566 47.2957C50.8566 45.5638 49.4476 44.1547 47.7156 44.1547H46.7889L46.7854 35.3798C46.7853 34.9689 46.9336 34.6355 47.239 34.3606L54.8341 27.5237C55.8748 26.5869 56.6771 26.2047 57.603 26.2043H57.6042C58.5294 26.2043 59.3317 26.5861 60.3728 27.5216L67.9728 34.3533C68.2783 34.628 68.427 34.9613 68.4272 35.3722L68.4375 61.6553C68.4378 62.4112 67.8231 63.0263 67.0673 63.0266ZM62.2962 52.4541C62.4106 53.3969 62.1579 54.2575 61.5654 54.9425C60.8686 55.7482 59.7105 56.2883 58.3927 56.4399V57.4336C58.3927 57.8651 58.0429 58.2149 57.6114 58.2149C57.18 58.2149 56.8302 57.8651 56.8302 57.4336V56.4286C54.8786 56.1604 53.3616 54.9264 52.9225 53.1649C52.8181 52.7462 53.0729 52.3222 53.4915 52.2178C53.9105 52.1141 54.3342 52.3683 54.4386 52.7869C54.8433 54.4098 56.4765 54.9513 57.7528 54.9195C58.8487 54.8934 59.8814 54.5013 60.3837 53.9205C60.6886 53.568 60.8068 53.1499 60.7452 52.6423C60.5994 51.4412 59.5974 50.7517 57.4961 50.4067C54.152 49.8576 53.3732 48.1616 53.309 46.8356C53.2197 44.9982 54.5061 43.4582 56.5099 43.0037C56.6149 42.9799 56.7219 42.9593 56.8304 42.9422V41.9261C56.8304 41.4947 57.1802 41.1449 57.6116 41.1449C58.0431 41.1449 58.3929 41.4947 58.3929 41.9261V42.9356C59.8232 43.1474 61.2343 43.976 61.9393 45.6552C62.1063 46.053 61.9192 46.511 61.5214 46.678C61.1234 46.8452 60.6656 46.658 60.4986 46.2601C59.821 44.6462 58.1807 44.2271 56.8555 44.5277C55.8541 44.7547 54.8065 45.4605 54.8697 46.76C54.8895 47.1669 54.9495 48.4053 57.7493 48.865C58.7866 49.0351 61.9441 49.5536 62.2962 52.4541ZM57.605 35.1177C59.1391 35.1177 60.3872 33.8697 60.3872 32.3355C60.3872 30.8013 59.1392 29.5533 57.605 29.5533C56.0708 29.5533 54.8227 30.8013 54.8227 32.3355C54.8227 33.8697 56.0708 35.1177 57.605 35.1177ZM57.605 31.1157C58.2775 31.1157 58.8247 31.6629 58.8247 32.3354C58.8247 33.0079 58.2775 33.5551 57.605 33.5551C56.9324 33.5551 56.3852 33.0079 56.3852 32.3354C56.3852 31.6629 56.9324 31.1157 57.605 31.1157Z" fill="#0C1D36"/>
</svg>
