<svg width="90" height="90" viewBox="0 0 90 90" fill="none" xmlns="http://www.w3.org/2000/svg">
<circle cx="45" cy="45" r="44.5" stroke="#0C1D36"/>
<path d="M67.6562 66.875H65.3125V63.6711C67.0937 63.3078 68.4375 61.7297 68.4375 59.8438C68.4375 57.6898 66.6852 55.9375 64.5312 55.9375C62.3773 55.9375 60.625 57.6898 60.625 59.8438C60.6262 60.7438 60.9376 61.616 61.5069 62.3131C62.0761 63.0103 62.8684 63.4899 63.75 63.6711V66.875H59.8438V22.3438C59.8438 22.1365 59.7614 21.9378 59.6149 21.7913C59.4684 21.6448 59.2697 21.5625 59.0625 21.5625H30.9375C30.7303 21.5625 30.5316 21.6448 30.3851 21.7913C30.2386 21.9378 30.1562 22.1365 30.1562 22.3438V66.875H26.25V62.05C28.1797 61.3844 29.375 58.382 29.375 56.7188C29.375 54.5648 27.6227 52.8125 25.4688 52.8125C23.3148 52.8125 21.5625 54.5648 21.5625 56.7188C21.5625 58.382 22.7578 61.3844 24.6875 62.05V66.875H22.3438C22.1365 66.875 21.9378 66.9573 21.7913 67.1038C21.6448 67.2503 21.5625 67.449 21.5625 67.6562C21.5625 67.8635 21.6448 68.0622 21.7913 68.2087C21.9378 68.3552 22.1365 68.4375 22.3438 68.4375H67.6562C67.8635 68.4375 68.0622 68.3552 68.2087 68.2087C68.3552 68.0622 68.4375 67.8635 68.4375 67.6562C68.4375 67.449 68.3552 67.2503 68.2087 67.1038C68.0622 66.9573 67.8635 66.875 67.6562 66.875ZM62.1875 59.8438C62.1875 58.5516 63.2391 57.5 64.5312 57.5C65.8234 57.5 66.875 58.5516 66.875 59.8438C66.8736 60.3269 66.7226 60.7978 66.4428 61.1917C66.1631 61.5856 65.7682 61.8832 65.3125 62.0438V60.625C65.3125 60.4178 65.2302 60.2191 65.0837 60.0726C64.9372 59.9261 64.7385 59.8438 64.5312 59.8438C64.324 59.8438 64.1253 59.9261 63.9788 60.0726C63.8323 60.2191 63.75 60.4178 63.75 60.625V62.0438C63.2943 61.8832 62.8994 61.5856 62.6197 61.1917C62.3399 60.7978 62.1889 60.3269 62.1875 59.8438ZM23.125 56.7188C23.125 55.4266 24.1766 54.375 25.4688 54.375C26.7609 54.375 27.8125 55.4266 27.8125 56.7188C27.8125 57.8961 27.0797 59.5484 26.25 60.2664V59.0625C26.25 58.8553 26.1677 58.6566 26.0212 58.5101C25.8747 58.3636 25.676 58.2812 25.4688 58.2812C25.2615 58.2812 25.0628 58.3636 24.9163 58.5101C24.7698 58.6566 24.6875 58.8553 24.6875 59.0625V60.2664C23.8578 59.5484 23.125 57.8961 23.125 56.7188ZM41.0938 66.875V57.5H44.2188V66.875H41.0938ZM45.7812 66.875V57.5H48.9062V66.875H45.7812ZM50.4688 66.875V56.7188C50.4688 56.5115 50.3864 56.3128 50.2399 56.1663C50.0934 56.0198 49.8947 55.9375 49.6875 55.9375H40.3125C40.1053 55.9375 39.9066 56.0198 39.7601 56.1663C39.6136 56.3128 39.5312 56.5115 39.5312 56.7188V66.875H31.7188V23.125H58.2812V66.875H50.4688ZM55.1562 44.2188H50.4688C50.2615 44.2188 50.0628 44.3011 49.9163 44.4476C49.7698 44.5941 49.6875 44.7928 49.6875 45V51.25C49.6875 51.4572 49.7698 51.6559 49.9163 51.8024C50.0628 51.9489 50.2615 52.0312 50.4688 52.0312H55.1562C55.3635 52.0312 55.5622 51.9489 55.7087 51.8024C55.8552 51.6559 55.9375 51.4572 55.9375 51.25V45C55.9375 44.7928 55.8552 44.5941 55.7087 44.4476C55.5622 44.3011 55.3635 44.2188 55.1562 44.2188ZM54.375 50.4688H51.25V45.7812H54.375V50.4688ZM47.3438 44.2188H42.6562C42.449 44.2188 42.2503 44.3011 42.1038 44.4476C41.9573 44.5941 41.875 44.7928 41.875 45V51.25C41.875 51.4572 41.9573 51.6559 42.1038 51.8024C42.2503 51.9489 42.449 52.0312 42.6562 52.0312H47.3438C47.551 52.0312 47.7497 51.9489 47.8962 51.8024C48.0427 51.6559 48.125 51.4572 48.125 51.25V45C48.125 44.7928 48.0427 44.5941 47.8962 44.4476C47.7497 44.3011 47.551 44.2188 47.3438 44.2188ZM46.5625 50.4688H43.4375V45.7812H46.5625V50.4688ZM39.5312 44.2188H34.8438C34.6365 44.2188 34.4378 44.3011 34.2913 44.4476C34.1448 44.5941 34.0625 44.7928 34.0625 45V51.25C34.0625 51.4572 34.1448 51.6559 34.2913 51.8024C34.4378 51.9489 34.6365 52.0312 34.8438 52.0312H39.5312C39.7385 52.0312 39.9372 51.9489 40.0837 51.8024C40.2302 51.6559 40.3125 51.4572 40.3125 51.25V45C40.3125 44.7928 40.2302 44.5941 40.0837 44.4476C39.9372 44.3011 39.7385 44.2188 39.5312 44.2188ZM38.75 50.4688H35.625V45.7812H38.75V50.4688ZM55.1562 34.8438H50.4688C50.2615 34.8438 50.0628 34.9261 49.9163 35.0726C49.7698 35.2191 49.6875 35.4178 49.6875 35.625V41.875C49.6875 42.0822 49.7698 42.2809 49.9163 42.4274C50.0628 42.5739 50.2615 42.6562 50.4688 42.6562H55.1562C55.3635 42.6562 55.5622 42.5739 55.7087 42.4274C55.8552 42.2809 55.9375 42.0822 55.9375 41.875V35.625C55.9375 35.4178 55.8552 35.2191 55.7087 35.0726C55.5622 34.9261 55.3635 34.8438 55.1562 34.8438ZM54.375 41.0938H51.25V36.4062H54.375V41.0938ZM47.3438 34.8438H42.6562C42.449 34.8438 42.2503 34.9261 42.1038 35.0726C41.9573 35.2191 41.875 35.4178 41.875 35.625V41.875C41.875 42.0822 41.9573 42.2809 42.1038 42.4274C42.2503 42.5739 42.449 42.6562 42.6562 42.6562H47.3438C47.551 42.6562 47.7497 42.5739 47.8962 42.4274C48.0427 42.2809 48.125 42.0822 48.125 41.875V35.625C48.125 35.4178 48.0427 35.2191 47.8962 35.0726C47.7497 34.9261 47.551 34.8438 47.3438 34.8438ZM46.5625 41.0938H43.4375V36.4062H46.5625V41.0938ZM39.5312 34.8438H34.8438C34.6365 34.8438 34.4378 34.9261 34.2913 35.0726C34.1448 35.2191 34.0625 35.4178 34.0625 35.625V41.875C34.0625 42.0822 34.1448 42.2809 34.2913 42.4274C34.4378 42.5739 34.6365 42.6562 34.8438 42.6562H39.5312C39.7385 42.6562 39.9372 42.5739 40.0837 42.4274C40.2302 42.2809 40.3125 42.0822 40.3125 41.875V35.625C40.3125 35.4178 40.2302 35.2191 40.0837 35.0726C39.9372 34.9261 39.7385 34.8438 39.5312 34.8438ZM38.75 41.0938H35.625V36.4062H38.75V41.0938ZM55.1562 25.4688H50.4688C50.2615 25.4688 50.0628 25.5511 49.9163 25.6976C49.7698 25.8441 49.6875 26.0428 49.6875 26.25V32.5C49.6875 32.7072 49.7698 32.9059 49.9163 33.0524C50.0628 33.1989 50.2615 33.2812 50.4688 33.2812H55.1562C55.3635 33.2812 55.5622 33.1989 55.7087 33.0524C55.8552 32.9059 55.9375 32.7072 55.9375 32.5V26.25C55.9375 26.0428 55.8552 25.8441 55.7087 25.6976C55.5622 25.5511 55.3635 25.4688 55.1562 25.4688ZM54.375 31.7188H51.25V27.0312H54.375V31.7188ZM47.3438 25.4688H42.6562C42.449 25.4688 42.2503 25.5511 42.1038 25.6976C41.9573 25.8441 41.875 26.0428 41.875 26.25V32.5C41.875 32.7072 41.9573 32.9059 42.1038 33.0524C42.2503 33.1989 42.449 33.2812 42.6562 33.2812H47.3438C47.551 33.2812 47.7497 33.1989 47.8962 33.0524C48.0427 32.9059 48.125 32.7072 48.125 32.5V26.25C48.125 26.0428 48.0427 25.8441 47.8962 25.6976C47.7497 25.5511 47.551 25.4688 47.3438 25.4688ZM46.5625 31.7188H43.4375V27.0312H46.5625V31.7188ZM39.5312 25.4688H34.8438C34.6365 25.4688 34.4378 25.5511 34.2913 25.6976C34.1448 25.8441 34.0625 26.0428 34.0625 26.25V32.5C34.0625 32.7072 34.1448 32.9059 34.2913 33.0524C34.4378 33.1989 34.6365 33.2812 34.8438 33.2812H39.5312C39.7385 33.2812 39.9372 33.1989 40.0837 33.0524C40.2302 32.9059 40.3125 32.7072 40.3125 32.5V26.25C40.3125 26.0428 40.2302 25.8441 40.0837 25.6976C39.9372 25.5511 39.7385 25.4688 39.5312 25.4688ZM38.75 31.7188H35.625V27.0312H38.75V31.7188Z" fill="#0C1D36"/>
</svg>
