<svg width="90" height="90" viewBox="0 0 90 90" fill="none" xmlns="http://www.w3.org/2000/svg">
<circle cx="45" cy="45" r="44.5" stroke="#0C1D36"/>
<g clip-path="url(#clip0_539_353)">
<path d="M66.5137 63.6101C65.497 63.6108 64.5028 63.31 63.6571 62.7457C62.8113 62.1813 62.1519 61.3788 61.7623 60.4397C61.3727 59.5005 61.2704 58.4669 61.4683 57.4696C61.6662 56.4723 62.1554 55.5561 62.8741 54.8369C63.5928 54.1177 64.5087 53.6278 65.5058 53.4291C66.503 53.2305 67.5367 53.3321 68.4761 53.721C69.4155 54.1099 70.2185 54.7687 70.7835 55.6141C71.3484 56.4594 71.65 57.4533 71.65 58.4701C71.6493 59.8324 71.1081 61.1389 70.1451 62.1026C69.1821 63.0662 67.8761 63.6084 66.5137 63.6101ZM66.5137 55.2051C65.8678 55.2043 65.2362 55.3952 64.6988 55.7535C64.1613 56.1118 63.7423 56.6215 63.4946 57.218C63.2469 57.8146 63.1817 58.4712 63.3073 59.1047C63.4328 59.7383 63.7435 60.3205 64.1999 60.7775C64.6564 61.2344 65.2382 61.5458 65.8716 61.6721C66.5051 61.7984 67.1618 61.7339 67.7586 61.4869C68.3554 61.2399 68.8655 60.8214 69.2245 60.2844C69.5834 59.7474 69.775 59.116 69.775 58.4701C69.7746 57.6049 69.4311 56.7752 68.8196 56.1631C68.2082 55.5509 67.3789 55.2064 66.5137 55.2051ZM39.4275 63.6101C38.4107 63.6111 37.4164 63.3105 36.5705 62.7463C35.7246 62.1821 35.065 61.3797 34.6752 60.4405C34.2854 59.5014 34.1829 58.4678 34.3806 57.4704C34.5784 56.473 35.0675 55.5567 35.7862 54.8373C36.5048 54.118 37.4207 53.6279 38.4179 53.4292C39.4151 53.2305 40.4488 53.332 41.3883 53.7209C42.3278 54.1097 43.1309 54.7686 43.6959 55.6139C44.2609 56.4593 44.5625 57.4533 44.5625 58.4701C44.5615 59.8321 44.0203 61.1382 43.0577 62.1017C42.095 63.0653 40.7895 63.6078 39.4275 63.6101ZM39.4275 55.2051C38.7815 55.2041 38.1498 55.3947 37.6122 55.7529C37.0746 56.1111 36.6553 56.6206 36.4074 57.2171C36.1596 57.8137 36.0942 58.4703 36.2196 59.104C36.345 59.7377 36.6556 60.3199 37.112 60.777C37.5684 61.2341 38.1502 61.5456 38.7837 61.672C39.4171 61.7984 40.0739 61.734 40.6708 61.487C41.2677 61.24 41.7779 60.8216 42.1369 60.2845C42.4959 59.7475 42.6875 59.116 42.6875 58.4701C42.6868 57.6052 42.3433 56.7759 41.7322 56.1639C41.1211 55.5519 40.2923 55.2071 39.4275 55.2051Z" fill="#0C1D36"/>
<path d="M73.2762 59.4076H70.7125C70.4638 59.4076 70.2254 59.3089 70.0496 59.133C69.8738 58.9572 69.775 58.7188 69.775 58.4701C69.775 58.2215 69.8738 57.983 70.0496 57.8072C70.2254 57.6314 70.4638 57.5326 70.7125 57.5326H73.0112V52.5614C73.0106 51.8893 72.8385 51.2284 72.5112 50.6414L67.4362 41.5426C67.3929 41.465 67.3296 41.4003 67.2529 41.3552C67.1762 41.3102 67.0889 41.2864 67 41.2864H60.0837V57.5364H62.3162C62.5649 57.5364 62.8033 57.6351 62.9791 57.811C63.155 57.9868 63.2537 58.2252 63.2537 58.4739C63.2537 58.7225 63.155 58.961 62.9791 59.1368C62.8033 59.3126 62.5649 59.4114 62.3162 59.4114H59.1462C58.8976 59.4114 58.6591 59.3126 58.4833 59.1368C58.3075 58.961 58.2087 58.7225 58.2087 58.4739V40.3489C58.2087 40.1002 58.3075 39.8618 58.4833 39.686C58.6591 39.5101 58.8976 39.4114 59.1462 39.4114H67C67.4229 39.4112 67.8383 39.5239 68.2031 39.738C68.5678 39.952 68.8689 40.2596 69.075 40.6289L74.1487 49.7289C74.6311 50.595 74.8845 51.57 74.885 52.5614V57.7989C74.8843 58.2253 74.7146 58.6341 74.4131 58.9357C74.1115 59.2373 73.7027 59.407 73.2762 59.4076ZM35.2287 59.4076H26.24C25.9913 59.4076 25.7529 59.3089 25.5771 59.133C25.4013 58.9572 25.3025 58.7188 25.3025 58.4701V51.2601C25.3025 51.0115 25.4013 50.773 25.5771 50.5972C25.7529 50.4214 25.9913 50.3226 26.24 50.3226C26.4886 50.3226 26.7271 50.4214 26.9029 50.5972C27.0787 50.773 27.1775 51.0115 27.1775 51.2601V57.5326H35.2287C35.4774 57.5326 35.7158 57.6314 35.8917 57.8072C36.0675 57.983 36.1662 58.2215 36.1662 58.4701C36.1662 58.7188 36.0675 58.9572 35.8917 59.133C35.7158 59.3089 35.4774 59.4076 35.2287 59.4076ZM26.24 47.9339C25.9913 47.9339 25.7529 47.8351 25.5771 47.6593C25.4013 47.4835 25.3025 47.245 25.3025 46.9964V40.7014C25.3025 40.4527 25.4013 40.2143 25.5771 40.0385C25.7529 39.8626 25.9913 39.7639 26.24 39.7639C26.4886 39.7639 26.7271 39.8626 26.9029 40.0385C27.0787 40.2143 27.1775 40.4527 27.1775 40.7014V47.0001C27.1765 47.2481 27.0773 47.4856 26.9016 47.6606C26.7259 47.8356 26.488 47.9339 26.24 47.9339Z" fill="#0C1D36"/>
<path d="M59.1461 59.4076H43.6249C43.3762 59.4076 43.1378 59.3088 42.962 59.133C42.7861 58.9572 42.6874 58.7187 42.6874 58.4701C42.6874 58.2215 42.7861 57.983 42.962 57.8072C43.1378 57.6314 43.3762 57.5326 43.6249 57.5326H58.2086V33.0063H27.1774V36.8676C27.1774 37.1162 27.0786 37.3547 26.9028 37.5305C26.727 37.7063 26.4885 37.8051 26.2399 37.8051C25.9912 37.8051 25.7528 37.7063 25.577 37.5305C25.4011 37.3547 25.3024 37.1162 25.3024 36.8676V32.8338C25.303 32.3823 25.4828 31.9495 25.8022 31.6303C26.1216 31.3111 26.5546 31.1317 27.0061 31.1313H58.3811C58.8324 31.132 59.2651 31.3116 59.5842 31.6307C59.9034 31.9499 60.083 32.3825 60.0836 32.8338V58.4701C60.0836 58.7187 59.9848 58.9572 59.809 59.133C59.6332 59.3088 59.3948 59.4076 59.1461 59.4076ZM29.9461 52.1976H18.0474C17.7987 52.1976 17.5603 52.0988 17.3845 51.923C17.2086 51.7472 17.1099 51.5087 17.1099 51.2601C17.1099 51.0115 17.2086 50.773 17.3845 50.5972C17.5603 50.4214 17.7987 50.3226 18.0474 50.3226H29.9461C30.1948 50.3226 30.4332 50.4214 30.609 50.5972C30.7848 50.773 30.8836 51.0115 30.8836 51.2601C30.8836 51.5087 30.7848 51.7472 30.609 51.923C30.4332 52.0988 30.1948 52.1976 29.9461 52.1976Z" fill="#0C1D36"/>
<path d="M39.4275 47.9339H22.8237C22.5751 47.9339 22.3366 47.8352 22.1608 47.6593C21.985 47.4835 21.8862 47.2451 21.8862 46.9964C21.8862 46.7478 21.985 46.5093 22.1608 46.3335C22.3366 46.1577 22.5751 46.0589 22.8237 46.0589H39.4275C39.6761 46.0589 39.9146 46.1577 40.0904 46.3335C40.2662 46.5093 40.365 46.7478 40.365 46.9964C40.365 47.2451 40.2662 47.4835 40.0904 47.6593C39.9146 47.8352 39.6761 47.9339 39.4275 47.9339ZM22.3075 42.9839H15.8237C15.5751 42.9839 15.3366 42.8852 15.1608 42.7093C14.985 42.5335 14.8862 42.2951 14.8862 42.0464C14.8862 41.7978 14.985 41.5593 15.1608 41.3835C15.3366 41.2077 15.5751 41.1089 15.8237 41.1089H22.3075C22.5561 41.1089 22.7946 41.2077 22.9704 41.3835C23.1462 41.5593 23.245 41.7978 23.245 42.0464C23.245 42.2951 23.1462 42.5335 22.9704 42.7093C22.7946 42.8852 22.5561 42.9839 22.3075 42.9839ZM32.7037 37.8052H21.2587C21.0101 37.8052 20.7716 37.7064 20.5958 37.5306C20.42 37.3548 20.3212 37.1163 20.3212 36.8677C20.3212 36.619 20.42 36.3806 20.5958 36.2048C20.7716 36.0289 21.0101 35.9302 21.2587 35.9302H32.7037C32.9524 35.9302 33.1908 36.0289 33.3666 36.2048C33.5425 36.3806 33.6412 36.619 33.6412 36.8677C33.6412 37.1163 33.5425 37.3548 33.3666 37.5306C33.1908 37.7064 32.9524 37.8052 32.7037 37.8052Z" fill="#0C1D36"/>
</g>
<defs>
<clipPath id="clip0_539_353">
<rect width="60" height="60" fill="white" transform="translate(15 17)"/>
</clipPath>
</defs>
</svg>
