<svg width="90" height="90" viewBox="0 0 90 90" fill="none" xmlns="http://www.w3.org/2000/svg">
<circle cx="45" cy="45" r="44.5" stroke="#F9CC0B"/>
<path d="M48.294 42.6501C48.0851 42.6501 47.8914 42.5387 47.7868 42.3571L43.0293 34.1167C42.8673 33.8361 42.964 33.4775 43.2434 33.3161L51.3956 28.6098C51.6751 28.4484 52.034 28.5436 52.1957 28.8239L56.953 37.0643C57.1144 37.3447 57.0189 37.703 56.7385 37.8644C55.7978 38.4067 48.6736 42.6495 48.294 42.6495V42.6501ZM44.3368 34.0382L48.5084 41.2637L55.6454 37.1434L51.4739 29.9179L44.3368 34.0382Z" fill="#F9CC0B"/>
<path d="M42.8869 34.7061C42.0487 34.7061 41.7616 33.8577 41.2744 33.0134C40.972 32.4892 41.1522 31.8172 41.6757 31.5145L50.6175 26.3524C51.7806 25.6806 52.3568 27.1704 52.7772 27.8981C53.0796 28.4222 52.9 29.094 52.3756 29.3969L43.4341 34.5591C43.2678 34.6552 43.079 34.7058 42.8869 34.7058V34.7061ZM42.3267 32.4925L42.913 33.5076L51.7258 28.4196L51.1349 27.3954L42.3264 32.4925H42.3267ZM48.8163 44.9762C47.9775 44.9762 47.6922 44.1283 47.2044 43.2834C46.902 42.7599 47.0819 42.0878 47.6057 41.7846L56.5484 36.6222C57.7106 35.951 58.2877 37.4398 58.7075 38.1679C59.0099 38.6923 58.83 39.3644 58.3062 39.6673L49.3641 44.8294C49.1974 44.9249 49.0088 44.9759 48.8166 44.9759L48.8163 44.9762ZM48.2561 42.7625L48.8421 43.7777L57.6552 38.6896L57.064 37.666L48.2558 42.7625H48.2561ZM44.9796 42.0069C44.7768 42.0069 44.5802 41.9018 44.4713 41.714L41.8342 37.1469C41.6722 36.8662 41.7689 36.5076 42.0484 36.3462L44.2559 35.0718C44.536 34.9103 44.8946 35.0058 45.056 35.2862L47.6928 39.8533C47.8542 40.1334 47.7587 40.4917 47.4783 40.6534C47.0878 40.879 45.2907 42.0069 44.979 42.0069H44.9796ZM43.1426 37.0683L45.1937 40.6203L46.3867 39.9318L44.3356 36.3793L43.1426 37.0683Z" fill="#F9CC0B"/>
<path d="M33.5089 47.39C31.2369 47.39 30.2478 44.1802 32.1609 43.0763L42.491 37.112C42.772 36.95 43.1303 37.0469 43.2917 37.3261L45.0446 40.3622C45.2066 40.6426 45.1105 41.0012 44.8301 41.1626L34.4997 47.1269C34.202 47.2986 33.8593 47.39 33.5092 47.39H33.5089ZM42.5698 38.4195L32.7468 44.0908C31.6494 44.7239 32.8368 46.7343 33.9137 46.1117L43.7367 40.4407L42.5698 38.4195Z" fill="#F9CC0B"/>
<path d="M37.6131 45.2394C37.4048 45.2394 37.2094 45.1272 37.1054 44.9464L35.3523 41.9104C35.1903 41.63 35.2869 41.2711 35.5667 41.1097L38.2322 39.571C38.5131 39.409 38.8714 39.5057 39.0329 39.7852L40.7857 42.8212C40.9471 43.1016 40.8516 43.4599 40.5712 43.6213C40.1321 43.8748 37.9389 45.2391 37.6134 45.2391L37.6131 45.2394ZM36.6601 41.8313L37.827 43.8528L39.4776 42.8998L38.3107 40.8783L36.6601 41.8313Z" fill="#F9CC0B"/>
<path d="M66.0757 57.9873H23.9237C22.3739 57.9873 21.1133 56.7258 21.1133 55.1765V22.8122C21.1133 21.2624 22.3739 20.0017 23.9237 20.0017H66.0757C67.6255 20.0017 68.8861 21.2621 68.8861 22.8122V55.1765C68.8864 56.7258 67.6249 57.9873 66.0757 57.9873ZM23.9237 21.1736C23.0205 21.1736 22.2852 21.9086 22.2852 22.8122V55.1765C22.2852 56.0801 23.0202 56.8151 23.9237 56.8151L66.0757 56.8148C66.9792 56.8148 67.7142 56.0798 67.7142 55.1763V22.8119C67.7142 21.9087 66.9792 21.1733 66.0757 21.1733H23.9237V21.1736Z" fill="#F9CC0B"/>
<path d="M65.1859 50.4797H24.8135C24.49 50.4797 24.2275 50.2169 24.2275 49.8938V23.7017C24.2275 23.3782 24.49 23.1157 24.8135 23.1157H65.1859C65.5093 23.1157 65.7718 23.3782 65.7718 23.7017V49.8938C65.7721 50.2172 65.5093 50.48 65.1859 50.48V50.4797ZM25.3994 49.3075H64.6V24.2876H25.3994V49.3075ZM53.3438 64.4377H36.6559C36.2455 64.4377 35.9616 64.0234 36.1089 63.6405C36.8285 61.7766 36.8068 59.7982 36.0433 57.5924C35.9118 57.2121 36.1951 56.8149 36.597 56.8149H53.4015C53.8026 56.8149 54.087 57.2116 53.9552 57.5924C52.4235 62.0169 54.3416 63.4296 53.8266 64.1828C53.7727 64.2613 53.7006 64.3255 53.6164 64.3699C53.5321 64.4142 53.4384 64.4374 53.3432 64.4374L53.3438 64.4377ZM37.4692 63.2658H52.5305C52.0562 61.5997 52.0808 59.8594 52.6049 57.9871H37.3948C37.9189 59.8594 37.9435 61.5997 37.4692 63.2658Z" fill="#F9CC0B"/>
<path d="M68.3004 50.4797H21.6994C20.9283 50.4797 20.9283 49.3079 21.6994 49.3079H68.3001C69.0712 49.3079 69.0712 50.4797 68.3007 50.4797H68.3004ZM58.7071 69.9983H31.2921C30.9687 69.9983 30.7062 69.7355 30.7062 69.4123V66.076C30.7062 64.5262 31.9668 63.2655 33.5167 63.2655H56.4834C58.0332 63.2655 59.2936 64.5265 59.2936 66.076V69.4123C59.2936 69.7358 59.0308 69.9983 58.7074 69.9983H58.7071ZM31.8781 68.8264H58.1211V66.076C58.1211 65.1725 57.3864 64.438 56.4831 64.438H33.5164C32.6131 64.438 31.8778 65.1728 31.8778 66.076V68.8264H31.8781ZM44.9996 56.0409C41.8502 56.0409 41.8496 51.2541 44.9996 51.2541C48.1502 51.2541 48.1496 56.0409 44.9996 56.0409ZM44.9996 52.4262C43.3918 52.4262 43.3924 54.8687 44.9996 54.8687C46.6068 54.8687 46.6077 52.4262 44.9996 52.4262Z" fill="#F9CC0B"/>
</svg>
