<svg width="90" height="90" viewBox="0 0 90 90" fill="none" xmlns="http://www.w3.org/2000/svg">
<circle cx="45" cy="45" r="44.5" stroke="#F9CC0B"/>
<path d="M60.3636 53.591C59.5985 53.591 58.9015 53.8789 58.3561 54.341V52.1819C58.3561 49.7956 56.4167 47.8562 54.0303 47.8562H46.0076C44.4015 47.8562 42.9924 48.7425 42.25 50.0456C41.8735 49.3807 41.3273 48.8277 40.6671 48.443C40.007 48.0583 39.2565 47.8558 38.4924 47.8562H30.4773C28.0909 47.8562 26.1515 49.7956 26.1515 52.1819V54.341C25.6061 53.8865 24.9091 53.5986 24.1439 53.5986C22.4091 53.5986 21 55.0077 21 56.7425V66.1441C21 66.4547 21.2576 66.7122 21.5682 66.7122H23.3561V68.4774C23.3561 68.788 23.6136 69.0456 23.9242 69.0456H28.4318C28.7424 69.0456 29 68.788 29 68.4774V66.7122H55.5152V68.4774C55.5152 68.788 55.7727 69.0456 56.0833 69.0456H60.5909C60.9015 69.0456 61.1591 68.788 61.1591 68.4774V66.7122H62.947C63.2576 66.7122 63.5152 66.4547 63.5152 66.1441V56.735C63.5116 55.9009 63.1781 55.1022 62.5877 54.5132C61.9972 53.9241 61.1977 53.5926 60.3636 53.591ZM27.8636 67.8941H24.4924V66.7047H27.8636V67.8941ZM60.0152 67.8941H56.6439V66.7047H60.0152V67.8941ZM46.0076 48.985H54.0227C55.7803 48.985 57.2121 50.4168 57.2121 52.1744V60.4092H42.8182V52.1744C42.8182 50.4168 44.25 48.985 46.0076 48.985ZM27.2879 52.1744C27.2879 50.4168 28.7197 48.985 30.4773 48.985H38.4924C40.25 48.985 41.6818 50.4168 41.6818 52.1744V60.4092H27.2879V52.1744ZM62.3712 65.5607H22.1364V56.735C22.1364 55.6289 23.0379 54.7274 24.1439 54.7274C25.25 54.7274 26.1515 55.6289 26.1515 56.735V60.9774C26.1515 61.288 26.4091 61.5456 26.7197 61.5456H57.7879C58.0985 61.5456 58.3561 61.288 58.3561 60.9774V56.7274C58.3561 55.6213 59.2576 54.7198 60.3636 54.7198C61.4697 54.7198 62.3712 55.6213 62.3712 56.7274V65.5607ZM68.5379 24.6365H52.8561C52.5455 24.6365 52.2879 24.8941 52.2879 25.2047V42.6592C52.2879 42.9698 52.5455 43.2274 52.8561 43.2274H68.5379C68.8485 43.2274 69.1061 42.9698 69.1061 42.6592V25.2047C69.1061 24.8941 68.8485 24.6365 68.5379 24.6365ZM67.9697 42.091H53.4242V25.7728H67.9697V42.091Z" fill="#F9CC0B"/>
<path d="M55.9546 40.1288H65.4319C65.7425 40.1288 66.0001 39.8712 66.0001 39.5606V28.303C66.0001 27.9924 65.7425 27.7348 65.4319 27.7348H55.9546C55.644 27.7348 55.3864 27.9924 55.3864 28.303V39.5606C55.3864 39.8712 55.644 40.1288 55.9546 40.1288ZM56.5228 34.5H60.1289V38.9924H56.5228V34.5ZM61.2652 38.9924V34.5H64.8713V38.9924H61.2652ZM64.8713 33.3636H61.2652V28.8712H64.8713V33.3636ZM60.1289 28.8712V33.3636H56.5228V28.8712H60.1289ZM36.591 34.5455H37.6819C37.9546 36.1667 39.3561 37.4015 41.0531 37.4015C42.7501 37.4015 44.1516 36.1591 44.4243 34.5455H45.5152C45.77 34.5459 46.0191 34.4707 46.231 34.3293C46.4429 34.1879 46.6081 33.9868 46.7055 33.7514C46.8029 33.516 46.8282 33.257 46.7781 33.0072C46.728 32.7574 46.6049 32.5282 46.4243 32.3485L41.6289 27.553V21.5682C41.6289 21.2576 41.3713 21 41.0607 21C40.7501 21 40.4925 21.2576 40.4925 21.5682V27.553L35.697 32.3485C35.3258 32.7197 35.2198 33.2652 35.4167 33.75C35.6061 34.2348 36.0682 34.5455 36.591 34.5455ZM41.0531 36.2652C39.9849 36.2652 39.091 35.5303 38.8334 34.5455H43.2728C43.1449 35.0371 42.8577 35.4725 42.4561 35.7837C42.0545 36.0948 41.5611 36.2641 41.0531 36.2652ZM36.4849 33.1591L41.0455 28.5985L45.6061 33.1591C45.6667 33.2197 45.6592 33.2803 45.6364 33.3182C45.6213 33.3561 45.5834 33.4091 45.5001 33.4091H36.591C36.5076 33.4091 36.4698 33.3561 36.4546 33.3182C36.4395 33.2803 36.4319 33.2121 36.4849 33.1591ZM23.0682 34.5455H24.1592C24.4319 36.1667 25.8334 37.4015 27.5304 37.4015C29.2273 37.4015 30.6289 36.1591 30.9016 34.5455H31.9925C32.2472 34.5459 32.4964 34.4707 32.7083 34.3293C32.9202 34.1879 33.0853 33.9868 33.1828 33.7514C33.2802 33.516 33.3054 33.257 33.2554 33.0072C33.2053 32.7574 33.0822 32.5282 32.9016 32.3485L28.1061 27.553V21.5682C28.1061 21.2576 27.8485 21 27.5379 21C27.2273 21 26.9622 21.2576 26.9622 21.5682V27.553L22.1667 32.3485C21.7955 32.7197 21.6895 33.2652 21.8864 33.75C22.0834 34.2348 22.5455 34.5455 23.0682 34.5455ZM27.5304 36.2652C26.4622 36.2652 25.5682 35.5303 25.3107 34.5455H29.7501C29.6221 35.0371 29.3349 35.4725 28.9333 35.7837C28.5317 36.0948 28.0384 36.2641 27.5304 36.2652ZM22.9622 33.1591L27.5228 28.5985L32.0834 33.1591C32.144 33.2197 32.1364 33.2803 32.1137 33.3182C32.0985 33.3636 32.0607 33.4091 31.9773 33.4091H23.0682C22.9849 33.4091 22.947 33.3561 22.9319 33.3182C22.9167 33.2803 22.9092 33.2121 22.9622 33.1591ZM34.4849 50.8636C34.0531 50.8636 33.7122 51.2121 33.7122 51.6364C33.7122 52.0606 34.0607 52.4091 34.4849 52.4091C34.9167 52.4091 35.2576 52.0606 35.2576 51.6364C35.2576 51.2121 34.9167 50.8636 34.4849 50.8636ZM30.6592 53.9242C30.2273 53.9242 29.8864 54.2727 29.8864 54.697C29.8864 55.1288 30.2349 55.4697 30.6592 55.4697C31.0834 55.4697 31.4319 55.1212 31.4319 54.697C31.4395 54.2727 31.091 53.9242 30.6592 53.9242ZM34.4849 53.9242C34.0531 53.9242 33.7122 54.2727 33.7122 54.697C33.7122 55.1288 34.0607 55.4697 34.4849 55.4697C34.9167 55.4697 35.2576 55.1212 35.2576 54.697C35.2576 54.2727 34.9167 53.9242 34.4849 53.9242Z" fill="#F9CC0B"/>
<path d="M38.3106 55.4698C38.7373 55.4698 39.0833 55.1238 39.0833 54.697C39.0833 54.2703 38.7373 53.9243 38.3106 53.9243C37.8838 53.9243 37.5378 54.2703 37.5378 54.697C37.5378 55.1238 37.8838 55.4698 38.3106 55.4698Z" fill="#F9CC0B"/>
<path d="M34.4849 56.9847C34.0531 56.9847 33.7122 57.3332 33.7122 57.7575C33.7122 58.1817 34.0606 58.5302 34.4849 58.5302C34.9167 58.5302 35.2576 58.1817 35.2576 57.7575C35.2576 57.3256 34.9167 56.9847 34.4849 56.9847ZM50.0152 52.4165C50.447 52.4165 50.7879 52.0681 50.7879 51.6438C50.7879 51.2196 50.4394 50.8711 50.0152 50.8711C49.5834 50.8711 49.2425 51.2196 49.2425 51.6438C49.2425 52.0681 49.5909 52.4165 50.0152 52.4165ZM46.197 55.4772C46.6288 55.4772 46.9697 55.1287 46.9697 54.7044C46.9697 54.2726 46.6212 53.9317 46.197 53.9317C45.7728 53.9317 45.4243 54.2802 45.4243 54.7044C45.4167 55.1287 45.7652 55.4772 46.197 55.4772Z" fill="#F9CC0B"/>
<path d="M50.0152 55.4698C50.4419 55.4698 50.7879 55.1238 50.7879 54.697C50.7879 54.2703 50.4419 53.9243 50.0152 53.9243C49.5884 53.9243 49.2424 54.2703 49.2424 54.697C49.2424 55.1238 49.5884 55.4698 50.0152 55.4698Z" fill="#F9CC0B"/>
<path d="M53.8408 55.4698C54.2676 55.4698 54.6136 55.1238 54.6136 54.697C54.6136 54.2703 54.2676 53.9243 53.8408 53.9243C53.4141 53.9243 53.0681 54.2703 53.0681 54.697C53.0681 55.1238 53.4141 55.4698 53.8408 55.4698Z" fill="#F9CC0B"/>
<path d="M50.0152 58.5303C50.447 58.5303 50.7879 58.1818 50.7879 57.7576C50.7879 57.3258 50.4394 56.9849 50.0152 56.9849C49.5833 56.9849 49.2424 57.3333 49.2424 57.7576C49.2424 58.1818 49.5909 58.5303 50.0152 58.5303Z" fill="#F9CC0B"/>
</svg>
