<svg width="90" height="90" viewBox="0 0 90 90" fill="none" xmlns="http://www.w3.org/2000/svg">
<circle cx="45" cy="45" r="44.5" stroke="#F9CC0B"/>
<g clip-path="url(#clip0_539_453)">
<path d="M69.8439 46.1875C69.7752 46.0949 69.6856 46.0197 69.5825 45.9681C69.4793 45.9166 69.3654 45.89 69.2501 45.8906H67.2345V39.7969C67.2366 39.6971 67.2187 39.5979 67.182 39.5051C67.1452 39.4123 67.0903 39.3277 67.0204 39.2564C66.9506 39.1851 66.8672 39.1285 66.7752 39.0898C66.6831 39.0511 66.5843 39.0312 66.4845 39.0312H64.922V32.5C64.922 32.2969 64.8413 32.1022 64.6977 31.9586C64.5542 31.815 64.3594 31.7344 64.1564 31.7344H63.5939V27.8125C63.5939 27.6136 63.5149 27.4228 63.3742 27.2822C63.2335 27.1415 63.0428 27.0625 62.8439 27.0625H59.2189C59.0212 27.0665 58.8328 27.1468 58.693 27.2866C58.5532 27.4264 58.4729 27.6148 58.4689 27.8125V31.7187H57.9064C57.8065 31.7187 57.7077 31.7386 57.6157 31.7773C57.5237 31.816 57.4403 31.8726 57.3704 31.9439C57.3006 32.0152 57.2457 32.0998 57.2089 32.1926C57.1722 32.2854 57.1543 32.3846 57.1564 32.4844V39.0625H55.5939C55.3935 39.0666 55.2028 39.1491 55.0626 39.2922C54.9223 39.4353 54.8438 39.6277 54.8439 39.8281V45.9219H52.8126C52.6816 45.9198 52.5523 45.9521 52.4376 46.0156L50.9689 46.8437V40.5937C50.971 40.4947 50.9531 40.3962 50.9161 40.3042C50.8792 40.2123 50.824 40.1287 50.7539 40.0587C50.6839 39.9886 50.6003 39.9334 50.5084 39.8965C50.4164 39.8596 50.3179 39.8416 50.2189 39.8437H45.5314V34.2031C45.5314 34.0027 45.4529 33.8103 45.3127 33.6672C45.1725 33.5241 44.9817 33.4416 44.7814 33.4375H33.8439C33.7441 33.4375 33.6452 33.4574 33.5532 33.496C33.4612 33.5347 33.3778 33.5914 33.3079 33.6627C33.2381 33.734 33.1832 33.8185 33.1464 33.9113C33.1097 34.0041 33.0918 34.1033 33.0939 34.2031V39.8437H28.4064C28.3066 39.8417 28.2074 39.8595 28.1146 39.8963C28.0218 39.9331 27.9372 39.988 27.8659 40.0578C27.7946 40.1277 27.738 40.2111 27.6993 40.3031C27.6606 40.3951 27.6407 40.4939 27.6407 40.5937V46.7187L26.0782 45.9531C25.9729 45.8962 25.8541 45.8692 25.7345 45.875H20.7501C20.6348 45.8744 20.5209 45.9009 20.4178 45.9525C20.3146 46.0041 20.2251 46.0792 20.1564 46.1719C20.0838 46.266 20.0346 46.3759 20.0129 46.4927C19.9912 46.6096 19.9975 46.7299 20.0314 46.8437L21.2657 50.8906L24.8126 62.4219C24.8596 62.5758 24.9548 62.7106 25.0842 62.8063C25.2136 62.9019 25.3704 62.9534 25.5314 62.9531H64.7032C64.8662 62.9524 65.0245 62.8987 65.1542 62.8C65.2838 62.7013 65.3779 62.5631 65.422 62.4062L68.7814 50.8906L70.0001 46.8594C70.0272 46.7429 70.0273 46.6217 70.0002 46.5053C69.9731 46.3888 69.9196 46.2801 69.8439 46.1875ZM59.9845 28.5469H62.0314V31.6719H59.9845V28.5469ZM58.672 33.2344H63.3595V39.0625H58.672V33.2344ZM56.297 40.5781H65.672V45.9219H56.297V40.5781ZM46.922 44.25C47.0269 44.1791 47.113 44.0837 47.1729 43.9721C47.2328 43.8605 47.2647 43.736 47.2657 43.6094V41.375H49.422V47.0156H40.047V41.375H42.2189V43.5781C42.2169 43.7036 42.2457 43.8277 42.303 43.9394C42.3602 44.0511 42.444 44.147 42.547 44.2187C42.6747 44.2957 42.8199 44.3387 42.9689 44.3437C43.0665 44.367 43.1682 44.367 43.2657 44.3437L44.7345 43.7187L46.1876 44.3437C46.3108 44.3857 46.4424 44.3962 46.5707 44.3744C46.6989 44.3526 46.8197 44.2991 46.922 44.2187V44.25ZM45.7501 41.4062V42.4688L45.047 42.1562C44.9486 42.1417 44.8485 42.1417 44.7501 42.1562C44.6465 42.1415 44.5413 42.1415 44.4376 42.1562L43.7501 42.4688V41.4062H45.7501ZM38.297 34.9531H40.3126V36.0312L39.6095 35.7188C39.5112 35.7024 39.4109 35.7024 39.3126 35.7188C39.2142 35.7042 39.1142 35.7042 39.0157 35.7188L38.3126 36.0312L38.297 34.9531ZM34.6251 34.9531H36.7814V37.1875C36.7824 37.3141 36.8143 37.4386 36.8742 37.5502C36.9341 37.6618 37.0202 37.7572 37.1251 37.8281C37.2519 37.9071 37.3977 37.9503 37.547 37.9531C37.6454 37.9677 37.7454 37.9677 37.8439 37.9531L39.297 37.3281L40.7657 37.9531C40.8882 38.022 41.0275 38.0551 41.1679 38.0487C41.3082 38.0423 41.4439 37.9966 41.5595 37.9168C41.6752 37.837 41.766 37.7263 41.8218 37.5974C41.8776 37.4684 41.8961 37.3264 41.8751 37.1875V34.9531H44.047V39.8437H34.672L34.6251 34.9531ZM32.8595 41.375H34.8595V42.4375L34.1564 42.125C33.9662 42.0469 33.7528 42.0469 33.5626 42.125L32.8595 42.4375V41.375ZM29.172 41.375H31.3439V43.5781C31.3422 43.7053 31.3728 43.8308 31.4329 43.9429C31.4931 44.0549 31.5807 44.1499 31.6876 44.2187C31.7987 44.2763 31.9219 44.3063 32.047 44.3063C32.1721 44.3063 32.2953 44.2763 32.4064 44.2187L33.8595 43.5937L35.3126 44.2187C35.4156 44.2407 35.5221 44.2407 35.6251 44.2187C35.7695 44.2154 35.9101 44.1722 36.0314 44.0937C36.1383 44.0249 36.2259 43.9299 36.2861 43.8179C36.3462 43.7058 36.3768 43.5803 36.3751 43.4531V41.375H38.547V47.0156H29.172V41.375ZM64.1251 61.4531H26.0939L22.9689 51.4375H67.047L64.1251 61.4531ZM67.5001 49.9219H22.5626L21.7814 47.4062H25.6095L27.7189 48.4531C27.8242 48.51 27.9431 48.537 28.0626 48.5312H50.7501C50.8812 48.5333 51.0105 48.501 51.1251 48.4375L52.9845 47.4062H68.2345L67.5001 49.9219Z" fill="#F9CC0B"/>
<path d="M57.9062 42.2031C57.6369 42.2031 57.3786 42.3101 57.1881 42.5006C56.9976 42.6911 56.8906 42.9494 56.8906 43.2187C56.8906 43.4881 56.9976 43.7464 57.1881 43.9369C57.3786 44.1274 57.6369 44.2344 57.9062 44.2344C58.1756 44.2344 58.4339 44.1274 58.6244 43.9369C58.8149 43.7464 58.9219 43.4881 58.9219 43.2187C58.9219 42.9494 58.8149 42.6911 58.6244 42.5006C58.4339 42.3101 58.1756 42.2031 57.9062 42.2031ZM61.0156 42.2031C60.7463 42.2031 60.4879 42.3101 60.2975 42.5006C60.107 42.6911 60 42.9494 60 43.2187C60 43.4881 60.107 43.7464 60.2975 43.9369C60.4879 44.1274 60.7463 44.2344 61.0156 44.2344C61.285 44.2344 61.5433 44.1274 61.7338 43.9369C61.9242 43.7464 62.0312 43.4881 62.0312 43.2187C62.0312 42.9494 61.9242 42.6911 61.7338 42.5006C61.5433 42.3101 61.285 42.2031 61.0156 42.2031ZM64.1094 42.2031C63.84 42.2031 63.5817 42.3101 63.3912 42.5006C63.2008 42.6911 63.0937 42.9494 63.0937 43.2187C63.0937 43.4881 63.2008 43.7464 63.3912 43.9369C63.5817 44.1274 63.84 44.2344 64.1094 44.2344C64.3787 44.2344 64.6371 44.1274 64.8275 43.9369C65.018 43.7464 65.125 43.4881 65.125 43.2187C65.125 42.9494 65.018 42.6911 64.8275 42.5006C64.6371 42.3101 64.3787 42.2031 64.1094 42.2031Z" fill="#F9CC0B"/>
</g>
<defs>
<clipPath id="clip0_539_453">
<rect width="50" height="50" fill="#F9CC0B" transform="translate(20 20)"/>
</clipPath>
</defs>
</svg>
