<svg width="90" height="90" viewBox="0 0 90 90" fill="none" xmlns="http://www.w3.org/2000/svg">
<circle cx="45" cy="45" r="44.5" stroke="#F9CC0B"/>
<g clip-path="url(#clip0_538_126)">
<path d="M47.8836 56.0652C47.7689 56.0652 47.655 56.029 47.5606 55.9584C47.4117 55.8492 47.3275 55.6719 47.3389 55.4877L47.6369 50.3466C47.6448 50.1999 47.7118 50.0635 47.8222 49.9668L51.2291 46.9921C51.4565 46.7931 51.8009 46.8169 51.9989 47.0432C52.1981 47.2707 52.174 47.6152 51.9477 47.8143L48.7138 50.6378L48.4774 54.7132L52.2981 53.277L54.0333 49.3494C54.1551 49.073 54.4778 48.9492 54.753 49.0708C55.0294 49.1925 55.1533 49.5154 55.0316 49.7906L53.2033 53.9274C53.144 54.0616 53.0336 54.1663 52.896 54.2174L48.076 56.03C48.0132 56.0539 47.9484 56.0653 47.8836 56.0652Z" fill="#F9CC0B"/>
<path d="M51.9182 46.9671L54.8511 49.1265L55.8028 48.4112L52.3172 45.8459L51.9182 46.9671ZM54.853 50.3523C54.7394 50.3523 54.6267 50.3171 54.5302 50.2455L50.9436 47.6061C50.7494 47.4629 50.6718 47.2105 50.7526 46.9831L51.5351 44.7872C51.5929 44.6247 51.7248 44.4995 51.8897 44.4484C52.0548 44.3982 52.2342 44.429 52.3729 44.5313L57.0412 47.9666C57.1798 48.069 57.2627 48.2316 57.2638 48.4044C57.264 48.5762 57.1831 48.74 57.0455 48.8434L55.1819 50.2432C55.0841 50.316 54.9691 50.3523 54.853 50.3523Z" fill="#F9CC0B"/>
<path d="M55.8006 48.2771C55.688 48.2771 55.5742 48.2429 55.4775 48.1713C55.2341 47.9927 55.1819 47.6505 55.3615 47.4083L67.5073 30.9061C67.9042 30.3672 67.7881 29.6065 67.2491 29.2096C66.7104 28.8138 65.9493 28.9287 65.5526 29.4677L53.4068 45.9697C53.2282 46.212 52.886 46.2643 52.6438 46.0858C52.4005 45.9062 52.348 45.565 52.5277 45.3216L64.6736 28.8206C65.0375 28.3259 65.5741 28.0031 66.1836 27.9099C66.7944 27.8177 67.4026 27.9668 67.8961 28.3306C68.391 28.6945 68.7137 29.2313 68.8069 29.8407C68.8991 30.4514 68.7501 31.0597 68.3863 31.5532L56.2407 48.0554C56.1337 48.2008 55.9676 48.2771 55.8006 48.2771Z" fill="#F9CC0B"/>
<path d="M63.8423 42.3845H63.8433H63.8423ZM63.3726 43.4489C62.8324 43.4489 62.423 43.193 62.3162 42.7529L62.224 42.3709C61.7796 40.5309 62.5584 38.9708 64.5393 37.7347C65.0668 37.4061 65.8151 36.9024 66.2358 36.3281C67.4573 34.6599 67.0477 33.8321 66.6349 33.3544L66.4177 33.1044C66.2212 32.8758 66.245 32.5312 66.4735 32.3333C66.701 32.1367 67.0466 32.1616 67.2432 32.389L67.4605 32.6404C68.1588 33.4476 68.667 34.8544 67.1171 36.9728C66.5851 37.6995 65.7207 38.2839 65.1181 38.6603C63.5363 39.6474 62.954 40.7448 63.2849 42.1149L63.3441 42.3595C63.4785 42.3663 63.692 42.3129 63.8092 42.2469L63.7502 42.0024C63.3455 40.3297 64.7644 39.4438 65.3704 39.0663C66.0074 38.6683 66.9216 38.0486 67.5025 37.2549C68.4613 35.946 69.2936 34.0288 67.8222 32.3277L67.3719 31.8079C67.1751 31.5793 67.199 31.2349 67.4276 31.0381C67.655 30.8402 67.9995 30.8654 68.1974 31.0927L68.6478 31.6135C70.141 33.3385 70.0453 35.6299 68.3839 37.8996C67.6914 38.8457 66.6623 39.5473 65.9482 39.9919C64.9602 40.6094 64.6517 41.0847 64.811 41.7465L64.9033 42.1275C65.0385 42.6869 64.6006 43.2066 63.8398 43.3908C63.6763 43.4295 63.5203 43.4489 63.3726 43.4489Z" fill="#F9CC0B"/>
<path d="M68.2693 30.4888C68.1577 30.4888 68.044 30.4536 67.9462 30.382C67.7041 30.2033 67.6517 29.8622 67.8303 29.6189L68.7708 28.3408C69.0038 28.0258 68.9355 27.5801 68.6205 27.348C68.3046 27.1149 67.8587 27.1832 67.6267 27.4993L66.6863 28.7763C66.5067 29.0197 66.1655 29.0709 65.9233 28.8923C65.6801 28.7138 65.6276 28.3726 65.8061 28.1292L66.7477 26.8521C67.337 26.0517 68.467 25.88 69.2676 26.469C69.6542 26.7533 69.9067 27.1729 69.9795 27.6494C70.0513 28.1258 69.935 28.6024 69.6497 28.9889L68.7093 30.2659C68.6024 30.4115 68.4374 30.4888 68.2693 30.4888Z" fill="#F9CC0B"/>
<path d="M66.3292 33.9003C66.1027 33.9003 65.8913 33.7582 65.8139 33.5331C65.3978 32.3288 64.6551 31.9002 63.4043 32.1424C63.1088 32.1991 62.8221 32.0059 62.7653 31.7092C62.7085 31.4134 62.9017 31.1269 63.1973 31.07C64.9885 30.7232 66.2494 31.4522 66.8453 33.176C66.9442 33.4614 66.7929 33.7719 66.5075 33.8708C66.4484 33.8913 66.3882 33.9004 66.3292 33.9003Z" fill="#F9CC0B"/>
<path d="M27.3471 66.3666C25.7961 66.3666 24.5337 65.1044 24.5337 63.5534V34.8578C24.5337 34.5564 24.7781 34.312 25.0795 34.312C25.3809 34.312 25.6253 34.5564 25.6253 34.8578L25.6254 63.5534C25.6254 64.5029 26.3974 65.275 27.3469 65.275C27.6485 65.275 27.8928 65.5195 27.8928 65.8209C27.8928 66.1222 27.6483 66.3667 27.3471 66.3666Z" fill="#F9CC0B"/>
<path d="M29.5704 65.2751H63.3806C64.3291 65.2751 65.1012 64.503 65.1012 63.5535L65.1013 58.5512H30.1593V63.5535C30.1593 64.2017 29.9397 64.7986 29.5704 65.2751ZM63.3806 66.3667H27.3473C27.0459 66.3667 26.8013 66.1223 26.8013 65.821C26.8013 65.5196 27.0458 65.2751 27.3471 65.2751C28.2955 65.2751 29.0676 64.503 29.0676 63.5535V58.0054C29.0676 57.704 29.312 57.4596 29.6134 57.4596L65.647 57.4595C65.9485 57.4595 66.1928 57.704 66.1928 58.0054V63.5535C66.1928 65.1045 64.9317 66.3668 63.3806 66.3667Z" fill="#F9CC0B"/>
<path d="M21.0917 34.3122H24.5338V26.4465C24.5338 25.497 23.7617 24.7249 22.812 24.7249C21.8639 24.7249 21.0916 25.497 21.0916 26.4465L21.0917 34.3122ZM25.0798 35.4038H20.546C20.2446 35.4038 20 35.1592 20 34.858V26.4465C20 24.8955 21.261 23.6333 22.812 23.6333C24.3634 23.6332 25.6254 24.8955 25.6254 26.4465L25.6255 34.858C25.6255 35.1592 25.3808 35.4038 25.0798 35.4038Z" fill="#F9CC0B"/>
<path d="M61.1133 35.1239C60.8118 35.1239 60.5674 34.8806 60.5674 34.5781L60.5675 26.4464C60.5675 25.4969 59.7952 24.7248 58.8458 24.7248H22.8123C22.5111 24.7248 22.2664 24.4802 22.2664 24.179C22.2665 23.8776 22.5109 23.6332 22.8122 23.6332L58.8459 23.6331C60.3969 23.6331 61.659 24.8954 61.659 26.4464V34.578C61.659 34.8804 61.4145 35.1239 61.1133 35.1239ZM61.1133 58.5511C60.8118 58.5511 60.5674 58.3067 60.5674 58.0053L60.5675 40.5139C60.5675 40.2125 60.8118 39.9681 61.1132 39.9681C61.4147 39.9681 61.659 40.2126 61.659 40.5139V58.0053C61.659 58.3066 61.4145 58.5511 61.1133 58.5511Z" fill="#F9CC0B"/>
<path d="M50.1762 30.3627H29.6137C29.3123 30.3627 29.0676 30.1182 29.0676 29.8169C29.0676 29.5155 29.312 29.2711 29.6134 29.2711L50.1762 29.271C50.4789 29.271 50.722 29.5155 50.722 29.8169C50.7222 30.1182 50.4787 30.3627 50.1762 30.3627Z" fill="#F9CC0B"/>
<path d="M46.9217 36.0005H29.6137C29.3123 36.0005 29.0676 35.7561 29.0676 35.4549C29.0676 35.1535 29.312 34.9089 29.6134 34.9089H46.9217C47.2231 34.9089 47.4675 35.1535 47.4675 35.4549C47.4677 35.7561 47.2231 36.0007 46.9217 36.0005Z" fill="#F9CC0B"/>
<path d="M43.6673 41.6385H29.6137C29.3123 41.6385 29.0676 41.3941 29.0676 41.0927C29.0676 40.7901 29.312 40.5469 29.6134 40.5469H43.6673C43.9687 40.5469 44.2131 40.7902 44.2131 41.0927C44.2132 41.3941 43.9686 41.6386 43.6673 41.6385Z" fill="#F9CC0B"/>
<path d="M40.4118 47.2752H29.6137C29.3123 47.2752 29.0676 47.0308 29.0676 46.7294C29.0676 46.4281 29.312 46.1836 29.6134 46.1836H40.4118C40.7132 46.1836 40.9575 46.4281 40.9575 46.7294C40.9575 47.0308 40.7129 47.2753 40.4118 47.2752Z" fill="#F9CC0B"/>
<path d="M36.9628 52.9132H29.6137C29.3123 52.9132 29.0676 52.6687 29.0676 52.3673C29.0676 52.0659 29.312 51.8215 29.6134 51.8215H36.9628C37.2642 51.8215 37.5085 52.0659 37.5085 52.3673C37.5086 52.6687 37.2641 52.9132 36.9628 52.9132Z" fill="#F9CC0B"/>
</g>
<defs>
<clipPath id="clip0_538_126">
<rect width="50" height="50" fill="#F9CC0B" transform="translate(20 20)"/>
</clipPath>
</defs>
</svg>
