<svg width="90" height="90" viewBox="0 0 90 90" fill="none" xmlns="http://www.w3.org/2000/svg">
<circle cx="45" cy="45" r="44.5" stroke="#F9CC0B"/>
<path d="M63.206 30.7935H62.2643V26.5376C62.2643 26.3433 62.1871 26.1571 62.0497 26.0197C61.9124 25.8823 61.7261 25.8052 61.5318 25.8052H51.7383C51.544 25.8052 51.3577 25.8823 51.2204 26.0197C51.083 26.1571 51.0059 26.3433 51.0059 26.5376V30.7935H26.794C24.3132 30.7935 22.2949 32.8118 22.2949 35.2927V59.6959C22.2949 62.1768 24.3132 64.195 26.794 64.195H63.2059C65.6867 64.195 67.705 62.1768 67.705 59.6959V35.2927C67.7051 32.8118 65.6868 30.7935 63.206 30.7935ZM52.4707 27.27H60.7994V30.7935H52.4707V27.27ZM66.2402 59.6959C66.2402 61.369 64.8791 62.7302 63.206 62.7302H26.794C25.1209 62.7302 23.7598 61.369 23.7598 59.6959V35.2927C23.7598 33.6195 25.1209 32.2583 26.794 32.2583H63.2059C64.879 32.2583 66.2401 33.6195 66.2401 35.2927V59.6959H66.2402ZM36.3365 35.8498H27.38C27.1857 35.8498 26.9994 35.927 26.8621 36.0643C26.7247 36.2017 26.6476 36.388 26.6476 36.5822V41.1023C26.6476 41.2966 26.7247 41.4829 26.8621 41.6202C26.9994 41.7576 27.1857 41.8348 27.38 41.8348H36.3364C36.5307 41.8348 36.717 41.7576 36.8543 41.6202C36.9917 41.4829 37.0688 41.2966 37.0688 41.1023V36.5822C37.0689 36.486 37.0499 36.3908 37.0131 36.3019C36.9763 36.2131 36.9224 36.1323 36.8544 36.0643C36.7864 35.9963 36.7057 35.9424 36.6168 35.9056C36.5279 35.8687 36.4327 35.8498 36.3365 35.8498ZM35.6041 40.3698H28.1124V37.3146H35.604L35.6041 40.3698ZM51.7383 35.5568C45.5881 35.5568 40.5846 40.5604 40.5846 46.7105C40.5846 52.8607 45.5881 57.8643 51.7383 57.8643C57.8885 57.8643 62.892 52.8607 62.892 46.7105C62.892 40.5604 57.8885 35.5568 51.7383 35.5568ZM51.7383 56.3994C46.3958 56.3994 42.0494 52.053 42.0494 46.7105C42.0494 41.3681 46.3958 37.0217 51.7383 37.0217C57.0808 37.0217 61.4271 41.3681 61.4271 46.7105C61.4271 52.053 57.0808 56.3994 51.7383 56.3994ZM51.7383 39.9514C48.0112 39.9514 44.9791 42.9835 44.9791 46.7105C44.9791 50.4376 48.0112 53.4697 51.7383 53.4697C55.4653 53.4697 58.4975 50.4376 58.4975 46.7105C58.4975 42.9835 55.4653 39.9514 51.7383 39.9514ZM51.7383 52.0049C48.8189 52.0049 46.4439 49.6299 46.4439 46.7105C46.4439 43.7912 48.8189 41.4162 51.7383 41.4162C54.6576 41.4162 57.0326 43.7912 57.0326 46.7105C57.0326 49.6299 54.6576 52.0049 51.7383 52.0049Z" fill="#F9CC0B"/>
</svg>
