<svg width="90" height="90" viewBox="0 0 90 90" fill="none" xmlns="http://www.w3.org/2000/svg">
<circle cx="45" cy="45" r="44.5" stroke="#0C1D36"/>
<path d="M55.3587 31.8402L54.2105 33.8999L51.8969 34.3554C51.5139 34.4308 51.2017 34.7076 51.081 35.079C50.9604 35.4502 51.0503 35.8578 51.3157 36.1439L52.9198 37.8724C52.9198 37.8723 52.638 40.2134 52.638 40.2134C52.5914 40.601 52.7583 40.9835 53.0741 41.213C53.3899 41.4425 53.8052 41.4829 54.1594 41.3189L56.299 40.3274C56.2989 40.3274 58.4385 41.3189 58.4385 41.3189C58.7927 41.4829 59.208 41.4425 59.5239 41.213C59.8396 40.9835 60.0064 40.601 59.9598 40.2134L59.6781 37.8723C59.6781 37.8724 61.2822 36.1439 61.2822 36.1439C61.5477 35.8578 61.6375 35.4502 61.5168 35.079C61.3962 34.7076 61.0841 34.4308 60.701 34.3554L58.3873 33.8999L57.2392 31.8402C57.0491 31.4992 56.6893 31.2878 56.299 31.2878C55.9086 31.2878 55.5487 31.4992 55.3587 31.8402ZM56.299 32.5572L57.497 34.7067C57.5809 34.8569 57.7264 34.9627 57.8952 34.9958L60.3097 35.4713L58.6357 37.2749C58.5187 37.401 58.463 37.5721 58.4837 37.7429L58.7777 40.186L56.5449 39.1515C56.3889 39.0791 56.209 39.0791 56.0529 39.1515L53.8202 40.186L54.1142 37.7429C54.1348 37.5721 54.0792 37.401 53.9622 37.2749L52.2882 35.4713L54.7027 34.9958C54.8715 34.9627 55.017 34.8569 55.1008 34.7067L56.299 32.5572Z" fill="#0C1D36"/>
<path d="M56.299 27.6204C51.4792 27.6204 47.5662 31.5334 47.5662 36.3532C47.5662 41.1729 51.4792 45.086 56.299 45.086C61.1187 45.086 65.0318 41.1729 65.0318 36.3532C65.0318 31.5334 61.1187 27.6204 56.299 27.6204ZM56.299 28.7909C60.4728 28.7909 63.8614 32.1793 63.8614 36.3532C63.8614 40.527 60.4728 43.9156 56.299 43.9156C52.1251 43.9156 48.7367 40.527 48.7367 36.3532C48.7367 32.1793 52.1251 28.7909 56.299 28.7909Z" fill="#0C1D36"/>
<path d="M49.7385 41.5878C49.7385 41.5878 48.3027 44.0747 47.4403 45.5685C47.2031 45.9793 47.1961 46.484 47.4219 46.9012C47.6477 47.3184 48.074 47.5886 48.5477 47.6146L50.3989 47.7166L51.4128 49.2688C51.6722 49.666 52.1192 49.9001 52.5935 49.8871C53.0678 49.874 53.5013 49.6157 53.7386 49.2048C54.6588 47.6109 56.2546 44.8469 56.2546 44.8469C56.4161 44.5673 56.3201 44.209 56.0404 44.0475C55.7607 43.8859 55.4025 43.982 55.241 44.2616C55.241 44.2616 53.6452 47.0257 52.725 48.6196C52.691 48.6783 52.6291 48.7151 52.5614 48.7171C52.4937 48.7189 52.4298 48.6855 52.3927 48.6288L51.2168 46.8285C51.115 46.6726 50.9449 46.5744 50.7591 46.5643L48.6121 46.446C48.5444 46.4423 48.4836 46.4036 48.4513 46.3441C48.419 46.2845 48.4199 46.2123 48.4539 46.1536L50.7521 42.173C50.9136 41.8932 50.8177 41.5351 50.5379 41.3736C50.2583 41.2121 49.9 41.3081 49.7385 41.5878Z" fill="#0C1D36"/>
<path d="M61.8521 42.173L64.1504 46.1536C64.1843 46.2123 64.1852 46.2845 64.1529 46.3441C64.1208 46.4036 64.0598 46.4423 63.9921 46.446L61.8452 46.5643C61.6593 46.5744 61.4893 46.6726 61.3875 46.8285L60.2115 48.6288C60.1746 48.6855 60.1107 48.7189 60.0428 48.7171C59.9751 48.7151 59.9132 48.6783 59.8793 48.6196L57.3695 44.2726C57.2081 43.993 56.8498 43.8969 56.5702 44.0584C56.2904 44.2199 56.1945 44.5781 56.356 44.8578C56.356 44.8578 57.9472 47.6137 58.8657 49.2048C59.1029 49.6157 59.5364 49.874 60.0107 49.8871C60.485 49.9001 60.932 49.666 61.1914 49.2688L62.2053 47.7166L64.0565 47.6146C64.5302 47.5886 64.9564 47.3184 65.1823 46.9012C65.4081 46.484 65.4013 45.9793 65.1639 45.5685C64.3015 44.0747 62.8657 41.5878 62.8657 41.5878C62.7042 41.3081 62.3461 41.2121 62.0663 41.3736C61.7866 41.5351 61.6906 41.8932 61.8521 42.173Z" fill="#0C1D36"/>
<path d="M59.5455 67.0116C59.5455 67.0116 60.0953 65.9832 59.5455 65.8544V65.8412H59.42C58.0195 65.8412 56.8841 64.7058 56.8841 63.3052C56.8841 57.2641 56.8841 44.5613 56.8841 44.5613C56.8841 44.2382 56.6219 43.976 56.299 43.976C55.9759 43.976 55.7137 44.2382 55.7137 44.5613V63.3052C55.7137 64.2864 56.0949 65.1784 56.7174 65.8412H28.2971C27.6247 65.8412 26.9796 65.5741 26.504 65.0985C26.0285 64.6228 25.7613 63.9779 25.7613 63.3052V24.0965H55.7137V28.1634C55.7137 28.4863 55.9759 28.7485 56.299 28.7485C56.6219 28.7485 56.8841 28.4863 56.8841 28.1634V23.5113C56.8841 23.1881 56.6221 22.926 56.299 22.926H25.1761C24.8529 22.926 24.5908 23.1881 24.5908 23.5113V63.3052C24.5908 64.2883 24.9814 65.2309 25.6765 65.926C26.3716 66.6211 27.3143 67.0116 28.2973 67.0116H59.5455Z" fill="#0C1D36"/>
<path d="M59.7462 67.0115C60.7291 67.0115 61.6719 66.621 62.3669 65.9259C63.0619 65.2309 63.4525 64.2882 63.4525 63.3051C63.4525 60.6379 63.4525 57.2283 63.4525 57.2283C63.4525 56.905 63.1905 56.6431 62.8673 56.6431H56.365C56.042 56.6431 55.7798 56.9053 55.7798 57.2283C55.7798 57.5512 56.042 57.8134 56.365 57.8134H62.282V63.3051C62.282 63.9778 62.0149 64.6227 61.5393 65.0984C61.0638 65.574 60.4187 65.8411 59.7462 65.8411C59.4232 65.8411 59.161 66.1033 59.161 66.4264C59.161 66.7492 59.4232 67.0115 59.7462 67.0115Z" fill="#0C1D36"/>
<path d="M31.9349 33.0581H36.2578C36.5808 33.0581 36.843 32.7958 36.843 32.4728C36.843 32.1499 36.5808 31.8877 36.2578 31.8877H31.9349C31.6118 31.8877 31.3496 32.1499 31.3496 32.4728C31.3496 32.7958 31.6118 33.0581 31.9349 33.0581Z" fill="#0C1D36"/>
<path d="M31.9349 37.2233H39.7495C40.0724 37.2233 40.3347 36.9611 40.3347 36.6381C40.3347 36.3152 40.0724 36.053 39.7495 36.053H31.9349C31.6118 36.053 31.3496 36.3152 31.3496 36.6381C31.3496 36.9611 31.6118 37.2233 31.9349 37.2233Z" fill="#0C1D36"/>
<path d="M31.9349 41.3886H36.2578C36.5808 41.3886 36.843 41.1264 36.843 40.8035C36.843 40.4805 36.5808 40.2183 36.2578 40.2183H31.9349C31.6118 40.2183 31.3496 40.4805 31.3496 40.8035C31.3496 41.1264 31.6118 41.3886 31.9349 41.3886Z" fill="#0C1D36"/>
<path d="M31.9349 45.5539H44.3358C44.6589 45.5539 44.9211 45.2917 44.9211 44.9688C44.9211 44.6458 44.6589 44.3835 44.3358 44.3835H31.9349C31.6118 44.3835 31.3496 44.6458 31.3496 44.9688C31.3496 45.2917 31.6118 45.5539 31.9349 45.5539Z" fill="#0C1D36"/>
<path d="M31.9349 49.7193H44.3358C44.6589 49.7193 44.9211 49.4571 44.9211 49.1341C44.9211 48.811 44.6589 48.5488 44.3358 48.5488H31.9349C31.6118 48.5488 31.3496 48.811 31.3496 49.1341C31.3496 49.4571 31.6118 49.7193 31.9349 49.7193Z" fill="#0C1D36"/>
<path d="M31.9349 53.8847H44.3358C44.6589 53.8847 44.9211 53.6225 44.9211 53.2995C44.9211 52.9766 44.6589 52.7144 44.3358 52.7144H31.9349C31.6118 52.7144 31.3496 52.9766 31.3496 53.2995C31.3496 53.6225 31.6118 53.8847 31.9349 53.8847Z" fill="#0C1D36"/>
<path d="M31.9349 58.05H44.3358C44.6589 58.05 44.9211 57.7878 44.9211 57.4647C44.9211 57.1419 44.6589 56.8796 44.3358 56.8796H31.9349C31.6118 56.8796 31.3496 57.1419 31.3496 57.4647C31.3496 57.7878 31.6118 58.05 31.9349 58.05Z" fill="#0C1D36"/>
</svg>
