<svg width="90" height="90" viewBox="0 0 90 90" fill="none" xmlns="http://www.w3.org/2000/svg">
<circle cx="45" cy="45" r="44.5" stroke="#0C1D36"/>
<path d="M57.1777 41.3574C57.1777 34.6387 51.709 29.1797 45 29.1797C38.291 29.1797 32.8223 34.6387 32.8223 41.3574C32.8223 48.0664 38.2812 53.5352 45 53.5352C51.7188 53.5352 57.1777 48.0664 57.1777 41.3574ZM45 51.9629C39.1504 51.9629 34.3848 47.207 34.3848 41.3477C34.3848 35.4883 39.1504 30.7422 45 30.7422C50.8496 30.7422 55.6152 35.498 55.6152 41.3574C55.6152 47.2168 50.8496 51.9629 45 51.9629Z" fill="#0C1D36"/>
<path d="M59.9219 53.955C60.3613 53.7304 60.752 53.4374 61.0547 53.0273C61.8457 51.9433 61.6602 50.5272 61.4844 49.1503C61.3672 48.2616 61.25 47.3339 61.4551 46.7089C61.6406 46.123 62.2656 45.4687 62.8613 44.8437C63.7891 43.8671 64.834 42.7636 64.834 41.3671C64.834 39.9706 63.7988 38.8476 62.8711 37.871C62.2754 37.2362 61.6504 36.5917 61.4648 36.0058C61.2598 35.3808 61.377 34.453 61.4941 33.5644C61.6699 32.1874 61.8457 30.7714 61.0645 29.6874C60.2734 28.5937 58.8574 28.33 57.4902 28.0663C56.6113 27.9003 55.7031 27.7343 55.1855 27.3534C54.668 26.9823 54.2383 26.1815 53.8184 25.4003C53.1836 24.2284 52.4512 22.9003 51.1523 22.4706C49.9023 22.0605 48.623 22.6659 47.3828 23.2519C46.5527 23.6425 45.7031 24.0429 45.0195 24.0429C44.3359 24.0429 43.4863 23.6425 42.6563 23.2519C41.416 22.6659 40.1367 22.0605 38.8867 22.4706C37.5781 22.8905 36.8945 24.1698 36.2207 25.4003C35.8008 26.1718 35.3613 26.9823 34.8535 27.3534C34.3262 27.7343 33.4277 27.9101 32.5488 28.0663C31.1816 28.3202 29.7656 28.5937 28.9746 29.6874C28.1836 30.7714 28.3691 32.1874 28.5449 33.5644C28.6621 34.453 28.7793 35.3808 28.5742 36.0058C28.3887 36.5917 27.7637 37.246 27.168 37.871C26.2402 38.8476 25.1953 39.9511 25.1953 41.3476C25.1953 42.744 26.25 43.8476 27.168 44.8241C27.7637 45.4589 28.3887 46.1034 28.5742 46.6894C28.7793 47.3144 28.6621 48.2421 28.5449 49.1308C28.3691 50.5077 28.1934 51.9237 28.9746 53.0077C29.2773 53.4179 29.668 53.7206 30.1074 53.9355L25.8496 61.3085C25.6934 61.5819 25.7129 61.9237 25.9082 62.1776C26.1035 62.4315 26.4258 62.539 26.7285 62.4608L33.0176 60.7714L34.707 67.0605C34.7852 67.3632 35.0488 67.5878 35.3613 67.6366C35.4004 67.6366 35.4297 67.6464 35.459 67.6464C35.7324 67.6464 35.9961 67.4999 36.1328 67.2558L40.127 60.3319C40.9766 60.2343 41.8359 59.8339 42.666 59.4433C43.4961 59.0526 44.3457 58.6522 45.0293 58.6522C45.7129 58.6522 46.5625 59.0526 47.3926 59.4433C48.2227 59.8339 49.082 60.244 49.9316 60.3319L53.9258 67.2558C54.0625 67.4999 54.3262 67.6464 54.5996 67.6464C54.6289 67.6464 54.668 67.6464 54.6973 67.6366C55.0098 67.5976 55.2637 67.373 55.3516 67.0605L57.041 60.7714L63.3301 62.4608C63.6328 62.539 63.9551 62.4315 64.1504 62.1776C64.3457 61.9237 64.3652 61.5819 64.209 61.3085L59.9219 53.955ZM35.6934 64.8534L34.2969 59.6288C34.1895 59.2089 33.7598 58.9648 33.3398 59.0722L28.1152 60.4687L31.5918 54.4433C31.8945 54.5116 32.207 54.5702 32.5195 54.6288C33.3984 54.7948 34.3066 54.9608 34.8242 55.3417C35.3418 55.7128 35.7715 56.5136 36.1914 57.2948C36.7578 58.3397 37.3926 59.5019 38.4473 60.0487L35.6934 64.8534ZM45 57.0995C43.9648 57.0995 42.9492 57.578 41.9727 58.037C41.0059 58.496 40.0098 58.9647 39.3555 58.7499C38.6426 58.5155 38.1055 57.5194 37.5781 56.5624C37.0703 55.6347 36.5527 54.6776 35.752 54.0917C34.9414 53.5058 33.8574 53.3007 32.8125 53.1054C31.748 52.9003 30.6445 52.6952 30.2051 52.1093C29.7852 51.5331 29.9219 50.4198 30.0586 49.3554C30.1953 48.2909 30.332 47.1972 30.0195 46.2304C29.7168 45.3124 28.9746 44.5214 28.2617 43.7694C27.5 42.9687 26.709 42.1386 26.709 41.3671C26.709 40.5956 27.5 39.7655 28.2617 38.9647C28.9844 38.203 29.7266 37.4218 30.0195 36.5038C30.332 35.537 30.1953 34.4433 30.0586 33.3788C29.9219 32.3046 29.7852 31.2011 30.2051 30.6249C30.6348 30.0292 31.7383 29.8241 32.8125 29.6288C33.8574 29.4335 34.9414 29.2284 35.752 28.6425C36.5527 28.0663 37.0703 27.0995 37.5781 26.1718C38.1055 25.205 38.6426 24.2187 39.3555 23.9843C40.0195 23.7694 41.0156 24.2382 41.9727 24.6972C42.9492 25.1562 43.9648 25.6347 45 25.6347C46.0352 25.6347 47.0508 25.1562 48.0273 24.6972C48.9941 24.2382 49.9902 23.7694 50.6445 23.9843C51.3574 24.2187 51.8945 25.2148 52.4219 26.1718C52.9297 27.0995 53.4473 28.0565 54.248 28.6425C55.0586 29.2284 56.1426 29.4335 57.1875 29.6288C58.252 29.8339 59.3555 30.039 59.7949 30.6249C60.2148 31.2011 60.0781 32.3144 59.9414 33.3788C59.8047 34.4433 59.668 35.537 59.9805 36.5038C60.2832 37.4218 61.0254 38.2128 61.7383 38.9647C62.5 39.7655 63.291 40.5956 63.291 41.3671C63.291 42.1386 62.5 42.9687 61.7383 43.7694C61.0156 44.5312 60.2734 45.3124 59.9805 46.2304C59.668 47.1972 59.8047 48.2909 59.9414 49.3554C60.0781 50.4296 60.2148 51.5331 59.7949 52.1093C59.3652 52.705 58.2617 52.9101 57.1875 53.1054C56.1426 53.3007 55.0586 53.5058 54.248 54.0917C53.4473 54.6679 52.9297 55.6347 52.4219 56.5624C51.8945 57.5292 51.3574 58.5155 50.6445 58.7499C49.9805 58.9647 48.9844 58.496 48.0273 58.037C47.0508 57.578 46.0352 57.0995 45 57.0995ZM56.6602 59.0722C56.2402 58.9648 55.8105 59.2089 55.7031 59.6288L54.3066 64.8534L51.543 60.0683C52.5879 59.5312 53.2031 58.4081 53.7988 57.3144C54.2187 56.5429 54.6582 55.7323 55.166 55.3612C55.6934 54.9804 56.5918 54.8046 57.4707 54.6483C57.7832 54.5897 58.0957 54.5312 58.3984 54.4628L61.875 60.4882L56.6602 59.0722Z" fill="#0C1D36"/>
<path d="M52.3242 36.5723C52.0215 36.2695 51.5234 36.2695 51.2207 36.5723L43.3105 44.4824L38.7891 39.9609C38.4863 39.6582 37.9883 39.6582 37.6855 39.9609C37.3828 40.2637 37.3828 40.7617 37.6855 41.0645L42.7637 46.1426C42.9102 46.2891 43.1055 46.3672 43.3203 46.3672C43.5352 46.3672 43.7305 46.2891 43.877 46.1426L52.3242 37.6758C52.627 37.373 52.627 36.875 52.3242 36.5723Z" fill="#0C1D36"/>
</svg>
