<svg width="90" height="90" viewBox="0 0 90 90" fill="none" xmlns="http://www.w3.org/2000/svg">
<circle cx="45" cy="45" r="44.5" stroke="#0C1D36"/>
<g clip-path="url(#clip0_539_375)">
<path d="M45 51.3009C40.0928 51.3009 35.9053 47.7823 35.0088 43.0167C34.9639 43.0187 34.9189 43.0206 34.874 43.0206C33.3896 43.0206 32.1826 41.505 32.1826 39.6427C32.1826 38.7315 32.4639 37.879 32.9746 37.2423C33.1777 36.9894 33.5459 36.9493 33.7988 37.1515C34.0508 37.3546 34.0918 37.7228 33.8887 37.9757C33.5488 38.3995 33.3545 39.0069 33.3545 39.6427C33.3545 40.839 34.0498 41.8487 34.874 41.8487C35.0078 41.8487 35.1416 41.8224 35.2715 41.7696C35.3547 41.7358 35.4446 41.7217 35.5342 41.7283C35.6238 41.7349 35.7107 41.7621 35.7881 41.8077C35.9453 41.8995 36.0498 42.0597 36.0723 42.2403C36.6309 46.7374 40.4688 50.129 45 50.129C49.5312 50.129 53.3682 46.7374 53.9268 42.2403C53.938 42.1511 53.9695 42.0656 54.0189 41.9904C54.0684 41.9152 54.1344 41.8524 54.2119 41.8067C54.2894 41.7614 54.3763 41.7346 54.4659 41.7281C54.5555 41.7217 54.6453 41.7359 54.7285 41.7696C54.8584 41.8224 54.9922 41.8487 55.126 41.8487C55.9492 41.8487 56.6455 40.839 56.6455 39.6427C56.6455 39.0069 56.4502 38.3995 56.1103 37.9757C56.0134 37.8542 55.9685 37.6993 55.9855 37.5448C56.0025 37.3903 56.0801 37.2489 56.2012 37.1515C56.3225 37.0543 56.4775 37.0092 56.6321 37.0263C56.7866 37.0433 56.9281 37.121 57.0254 37.2423C57.5361 37.879 57.8174 38.7315 57.8174 39.6427C57.8174 41.505 56.6104 43.0206 55.126 43.0206C55.0811 43.0206 55.0361 43.0187 54.9912 43.0167C54.0938 47.7813 49.9062 51.3009 45 51.3009Z" fill="#0C1D36"/>
<path d="M56.5674 38.1943C56.2441 38.1943 55.9814 37.9326 55.9814 37.6084V32.1436C55.9814 26.0938 51.0684 21.1719 45.0293 21.1719H44.9707C38.9307 21.1719 34.0176 26.0938 34.0176 32.1436V37.6084C34.0176 37.9326 33.7559 38.1943 33.4316 38.1943C33.1084 38.1943 32.8457 37.9326 32.8457 37.6084V32.1436C32.8457 28.9189 34.1094 25.876 36.4023 23.5752C38.6992 21.2695 41.7422 20 44.9707 20H45.0293C48.2578 20 51.3008 21.2695 53.5977 23.5752C55.8906 25.876 57.1533 28.9189 57.1533 32.1436V37.6084C57.1533 37.9326 56.8916 38.1943 56.5674 38.1943Z" fill="#0C1D36"/>
<path d="M36.4209 38.8848C36.3765 38.885 36.3322 38.8797 36.2891 38.8692L33.2998 38.1797C33.2248 38.1624 33.154 38.1304 33.0914 38.0857C33.0288 38.041 32.9756 37.9844 32.9348 37.9191C32.8941 37.8538 32.8667 37.7811 32.8541 37.7051C32.8414 37.6292 32.8439 37.5516 32.8613 37.4766C32.8785 37.4016 32.9103 37.3308 32.9549 37.2682C32.9995 37.2055 33.0561 37.1523 33.1213 37.1115C33.1866 37.0708 33.2592 37.0433 33.3351 37.0308C33.411 37.0182 33.4886 37.0207 33.5635 37.0381L35.7783 37.5489C35.7637 36.9678 35.792 36.1387 35.9844 35.2452C36.4707 32.9922 37.7617 31.4151 39.7188 30.6836C40.0215 30.5713 40.3584 30.7237 40.4727 31.0264C40.4766 31.0372 40.9629 32.2774 42.2822 33.4942C43.8281 34.9219 45.8213 35.7315 48.2168 35.9092C47.5244 34.6251 46.5078 32.4659 46.7822 31.2891C46.8083 31.1774 46.8664 31.0759 46.9496 30.9969C47.0327 30.9179 47.1371 30.865 47.25 30.8448C47.363 30.8247 47.4794 30.8382 47.5848 30.8837C47.6902 30.9292 47.7799 31.0046 47.8428 31.1006C47.8838 31.1631 52.042 37.3946 56.5195 37.0245C56.8418 36.9991 57.125 37.2383 57.1514 37.5606C57.1787 37.8829 56.9385 38.1661 56.6162 38.1924C53.2969 38.4659 50.2969 35.8477 48.5244 33.8633C48.8848 34.6895 49.3447 35.5616 49.7471 36.2295C49.8007 36.3184 49.8297 36.42 49.8313 36.5238C49.8328 36.6276 49.8068 36.7299 49.7559 36.8204C49.7046 36.9107 49.6304 36.9859 49.5407 37.0382C49.451 37.0905 49.349 37.1181 49.2451 37.1182C45.2715 37.1182 42.8066 35.5909 41.4385 34.3106C40.498 33.4297 39.9336 32.5459 39.6387 31.9961C36.3711 33.6456 36.9932 38.1651 37 38.2129C37.0139 38.3074 37.0045 38.4038 36.9727 38.4939C36.9409 38.5839 36.8875 38.6648 36.8174 38.7295C36.7094 38.8292 36.5679 38.8846 36.4209 38.8848ZM69.1309 70.0001H20.8691C20.5459 70.0001 20.2832 69.7374 20.2832 69.4141C20.2832 65.5303 21.3047 62.2823 23.3193 59.7588C25.3496 57.2169 28.249 55.5831 31.9375 54.9034C32.7266 54.7579 33.418 54.6436 34.0283 54.543C35.8145 54.2481 36.8926 54.0704 37.3818 53.5967C37.8115 53.1807 37.9668 52.3692 37.9961 50.3819C38 50.1329 38.0029 49.3721 38.0039 48.2383C38.0039 47.9151 38.2666 47.6534 38.5898 47.6534C38.9141 47.6534 39.1758 47.9161 39.1758 48.2393C39.1748 48.8985 39.1738 50.0567 39.168 50.4004C39.1357 52.5293 38.9824 53.6768 38.1973 54.4385C37.4453 55.167 36.2998 55.3565 34.2197 55.6993C33.6143 55.7989 32.9277 55.9122 32.1494 56.0557C25.5381 57.2745 21.6699 61.9141 21.4639 68.8282H68.5361C68.3301 61.9141 64.4619 57.2745 57.8506 56.0557C57.0723 55.9122 56.3857 55.7989 55.7812 55.6993C53.6426 55.3467 52.4639 55.1524 51.7197 54.3536C50.9795 53.5596 50.8457 52.3594 50.8272 49.9708C50.8252 49.7618 50.8242 49.0489 50.8242 48.2393C50.8242 47.9161 51.0859 47.6534 51.4102 47.6534C51.7334 47.6534 51.9961 47.9151 51.9961 48.2393C51.9961 49.045 51.9971 49.753 51.999 49.962C52.0147 51.9502 52.1084 53.0518 52.5771 53.5547C53.0488 54.0616 54.1494 54.2422 55.9717 54.543C56.582 54.6436 57.2744 54.7579 58.0625 54.9034C61.751 55.5831 64.6504 57.2169 66.6797 59.7588C68.6953 62.2823 69.7168 65.5303 69.7168 69.4141C69.7168 69.7374 69.4541 70.0001 69.1309 70.0001Z" fill="#0C1D36"/>
<path d="M47.0029 70.0001C46.708 70.0001 46.454 69.7784 46.4208 69.4776L45.7929 63.7647C45.7763 63.6133 45.8193 63.461 45.913 63.3409L46.7324 62.2891L44.9999 61.0587L43.2675 62.2891L44.0859 63.3409C44.1798 63.461 44.2233 63.6131 44.207 63.7647L43.5781 69.4776C43.5698 69.5542 43.5466 69.6284 43.5096 69.6959C43.4726 69.7634 43.4227 69.823 43.3626 69.8712C43.3025 69.9194 43.2335 69.9552 43.1595 69.9767C43.0856 69.9981 43.0081 70.0047 42.9316 69.9962C42.7771 69.9792 42.6357 69.9015 42.5384 69.7803C42.4412 69.6591 42.3961 69.5042 42.413 69.3497L43.0156 63.8731L41.9658 62.5264C41.9172 62.464 41.8818 62.3923 41.8616 62.3158C41.8415 62.2393 41.837 62.1595 41.8485 62.0812C41.86 62.0029 41.8872 61.9278 41.9285 61.8603C41.9698 61.7928 42.0243 61.7344 42.0888 61.6885L44.6601 59.8624C44.7592 59.7918 44.8778 59.754 44.9995 59.754C45.1211 59.754 45.2397 59.7918 45.3388 59.8624L47.9101 61.6885C48.041 61.7813 48.1279 61.9239 48.1513 62.0811C48.1738 62.2403 48.1318 62.4005 48.0332 62.5264L46.9843 63.8731L47.5859 69.3497C47.621 69.6719 47.3896 69.961 47.0673 69.9962C47.0458 69.9991 47.0244 70.0001 47.0029 70.0001ZM41.5341 61.1182C41.3486 61.1182 41.1738 61.0303 41.0634 60.8809L36.581 54.8233C36.4886 54.6984 36.4496 54.542 36.4725 54.3884C36.4954 54.2347 36.5783 54.0965 36.7031 54.004C36.8279 53.9116 36.9844 53.8725 37.138 53.8954C37.2917 53.9183 37.4299 54.0012 37.5224 54.126L41.5341 59.5469L44.1611 55.9942L38.2187 52.0919C38.0888 52.0065 37.9981 51.8731 37.9666 51.7209C37.9351 51.5687 37.9654 51.4102 38.0507 51.2803C38.1361 51.1504 38.2695 51.0598 38.4217 51.0283C38.5739 50.9968 38.7324 51.027 38.8623 51.1124L45.3222 55.3546C45.456 55.4434 45.5488 55.5831 45.5771 55.7413C45.6054 55.9005 45.5673 56.0635 45.4716 56.1924L42.0058 60.8809C41.9514 60.9545 41.8804 61.0144 41.7987 61.0556C41.7169 61.0968 41.6267 61.1182 41.5351 61.1182H41.5341Z" fill="#0C1D36"/>
<path d="M48.4648 61.1181C48.2793 61.1181 48.1045 61.0302 47.9941 60.8808L44.5293 56.1923C44.4815 56.1284 44.4474 56.0554 44.4291 55.9778C44.4108 55.9002 44.4087 55.8196 44.4228 55.7411C44.437 55.6628 44.4669 55.5882 44.5107 55.5217C44.5546 55.4552 44.6113 55.3983 44.6777 55.3544L51.1377 51.1112C51.4082 50.9345 51.7715 51.0097 51.9492 51.2802C52.1269 51.5507 52.0508 51.913 51.7802 52.0907L45.8388 55.994L48.4658 59.5468L52.4736 54.1298L53.416 54.8271L48.9365 60.8808C48.8819 60.9544 48.8108 61.0142 48.7288 61.0555C48.6469 61.0967 48.5565 61.1181 48.4648 61.1181ZM56.5683 69.9999C56.4712 69.9999 56.3755 69.9757 56.29 69.9296C56.0058 69.7763 55.8994 69.4198 56.0527 69.1356L59.7656 62.2528L55.666 57.9325C55.5835 57.8459 55.5297 57.736 55.5117 57.6178C55.4937 57.4995 55.5125 57.3786 55.5654 57.2714C55.6178 57.164 55.7019 57.0752 55.8063 57.0171C55.9108 56.959 56.0305 56.9342 56.1494 56.9462L58.4697 57.1786L58.0908 55.7753C58.0068 55.4628 58.1924 55.1405 58.5049 55.0565C58.8174 54.9726 59.1386 55.1581 59.2226 55.4696L59.8222 57.6942C59.872 57.8798 59.8271 58.078 59.7031 58.2255C59.6415 58.2978 59.5633 58.354 59.4752 58.3894C59.3871 58.4248 59.2917 58.4382 59.1972 58.4286L57.6006 58.2694L60.9072 61.7548C60.9921 61.8444 61.0466 61.9585 61.0629 62.0809C61.0792 62.2033 61.0565 62.3277 60.998 62.4364L57.084 69.6923C57.0338 69.7854 56.9594 69.8631 56.8686 69.9173C56.7778 69.9715 56.6741 70 56.5683 69.9999ZM51.8388 69.9999C51.7998 69.9999 51.7597 69.996 51.7207 69.9872C51.6453 69.9718 51.5736 69.9418 51.5098 69.8987C51.446 69.8556 51.3913 69.8004 51.3489 69.7362C51.3064 69.672 51.2771 69.6001 51.2624 69.5245C51.2478 69.4489 51.2482 69.3712 51.2636 69.2958L54.2314 54.8231C54.2628 54.6709 54.3534 54.5373 54.4832 54.4518C54.613 54.3663 54.7715 54.3358 54.9238 54.3671C55.2402 54.4315 55.4453 54.7411 55.3799 55.0585L52.4121 69.5312C52.3851 69.6633 52.3133 69.7821 52.2089 69.8675C52.1044 69.9529 51.9737 69.9997 51.8388 69.9999ZM33.3916 69.9999C33.1836 69.9999 32.9814 69.8886 32.876 69.6923L29.0019 62.5097C28.8818 62.286 28.9179 62.0116 29.0927 61.828L32.3994 58.3427L30.8017 58.5028C30.7074 58.5121 30.6122 58.4984 30.5243 58.4629C30.4364 58.4273 30.3584 58.371 30.297 58.2987C30.2357 58.2264 30.1928 58.1403 30.172 58.0478C30.1512 57.9552 30.1532 57.8591 30.1777 57.7675L30.7978 55.4657C30.8818 55.1532 31.2041 54.9677 31.5166 55.0526C31.8291 55.1366 32.0136 55.4579 31.9297 55.7704L31.5302 57.2519L33.8496 57.0204C33.9686 57.0079 34.0885 57.0323 34.1932 57.0903C34.2978 57.1483 34.3821 57.2371 34.4345 57.3446C34.542 57.5653 34.5019 57.829 34.333 58.0067L30.2343 62.3271L33.9072 69.1356C34.0605 69.4208 33.9541 69.7763 33.6689 69.9296C33.581 69.9774 33.4863 69.9999 33.3916 69.9999ZM38.1465 69.9999C37.874 69.9999 37.6299 69.8085 37.5732 69.5312L34.6054 55.0604C34.5899 54.9851 34.5894 54.9074 34.6039 54.8319C34.6185 54.7563 34.6477 54.6844 34.6901 54.6202C34.7325 54.556 34.7871 54.5007 34.8508 54.4576C34.9145 54.4145 34.9861 54.3844 35.0615 54.369C35.1369 54.3535 35.2146 54.3529 35.2903 54.3674C35.3659 54.3819 35.4379 54.4112 35.5022 54.4536C35.5665 54.4959 35.6218 54.5505 35.665 54.6143C35.7082 54.678 35.7384 54.7497 35.7539 54.8251L38.7217 69.2958C38.7371 69.3712 38.7375 69.4489 38.7229 69.5245C38.7082 69.6001 38.6789 69.672 38.6364 69.7362C38.594 69.8004 38.5393 69.8556 38.4755 69.8987C38.4117 69.9418 38.34 69.9718 38.2646 69.9872C38.2256 69.996 38.1855 69.9999 38.1465 69.9999Z" fill="#0C1D36"/>
</g>
<defs>
<clipPath id="clip0_539_375">
<rect width="50" height="50" fill="white" transform="translate(20 20)"/>
</clipPath>
</defs>
</svg>
