<svg width="27" height="27" viewBox="0 0 27 27" fill="none" xmlns="http://www.w3.org/2000/svg">
<path d="M6.75 25.3125C6.52629 25.3123 6.31181 25.2233 6.15363 25.0651C5.99544 24.9069 5.90647 24.6925 5.90625 24.4688V20.25H3.375C1.97944 20.25 0.84375 19.1143 0.84375 17.7188V4.21875C0.84375 2.82319 1.97944 1.6875 3.375 1.6875H23.625C25.0206 1.6875 26.1562 2.82319 26.1562 4.21875V17.7188C26.1562 19.1143 25.0206 20.25 23.625 20.25H13.3743L7.27734 25.1277C7.12772 25.2475 6.94169 25.3127 6.75 25.3125ZM3.375 3.375C2.90925 3.375 2.53125 3.75384 2.53125 4.21875V17.7188C2.53125 18.1837 2.90925 18.5625 3.375 18.5625H6.75C6.97378 18.5625 7.18839 18.6514 7.34662 18.8096C7.50486 18.9679 7.59375 19.1825 7.59375 19.4062V22.7138L12.5508 18.7473C12.7005 18.6276 12.8865 18.5624 13.0781 18.5625H23.625C24.0907 18.5625 24.4688 18.1837 24.4688 17.7188V4.21875C24.4688 3.75384 24.0907 3.375 23.625 3.375H3.375Z" fill="#F9CC0B"/>
<path d="M20.25 10.125H6.75C6.52622 10.125 6.31161 10.0361 6.15338 9.87787C5.99515 9.71964 5.90625 9.50503 5.90625 9.28125C5.90625 9.05747 5.99515 8.84286 6.15338 8.68463C6.31161 8.5264 6.52622 8.4375 6.75 8.4375H20.25C20.4738 8.4375 20.6884 8.5264 20.8466 8.68463C21.0049 8.84286 21.0938 9.05747 21.0938 9.28125C21.0938 9.50503 21.0049 9.71964 20.8466 9.87787C20.6884 10.0361 20.4738 10.125 20.25 10.125ZM13.5 13.5H6.75C6.52622 13.5 6.31161 13.4111 6.15338 13.2529C5.99515 13.0946 5.90625 12.88 5.90625 12.6562C5.90625 12.4325 5.99515 12.2179 6.15338 12.0596C6.31161 11.9014 6.52622 11.8125 6.75 11.8125H13.5C13.7238 11.8125 13.9384 11.9014 14.0966 12.0596C14.2549 12.2179 14.3438 12.4325 14.3438 12.6562C14.3438 12.88 14.2549 13.0946 14.0966 13.2529C13.9384 13.4111 13.7238 13.5 13.5 13.5Z" fill="#F9CC0B"/>
</svg>
