<svg width="30" height="21" viewBox="0 0 30 21" fill="none" xmlns="http://www.w3.org/2000/svg">
<g clip-path="url(#clip0_145_797)">
<path d="M30 0H0V20.6897H30V0Z" fill="white"/>
<path fill-rule="evenodd" clip-rule="evenodd" d="M13 0V8.27586H0V12.4138H13V20.6897H17V12.4138H30V8.27586H17V0H13Z" fill="#DE2910"/>
<path fill-rule="evenodd" clip-rule="evenodd" d="M21.613 3.37571C22.079 3.46675 22.556 3.52675 23.042 3.55054C23.019 3.04778 22.961 2.55433 22.873 2.07227C23.097 2.10123 23.324 2.11571 23.555 2.11571C23.786 2.11571 24.013 2.10123 24.237 2.07227C24.149 2.55433 24.091 3.04778 24.068 3.55054C24.554 3.52675 25.031 3.46675 25.497 3.37571C25.469 3.60744 25.455 3.84227 25.455 4.08123C25.455 4.3202 25.469 4.55502 25.497 4.78675C25.031 4.69571 24.554 4.63571 24.068 4.61192C24.091 5.11468 24.149 5.60813 24.237 6.0902C24.013 6.06123 23.786 6.04675 23.555 6.04675C23.324 6.04675 23.097 6.06123 22.873 6.0902C22.961 5.60813 23.019 5.11468 23.042 4.61192C22.556 4.63571 22.079 4.69571 21.613 4.78675C21.641 4.55502 21.655 4.3202 21.655 4.08123C21.655 3.84227 21.641 3.60744 21.613 3.37571Z" fill="#DE2910"/>
<path fill-rule="evenodd" clip-rule="evenodd" d="M21.613 15.9031C22.079 15.9941 22.556 16.0541 23.042 16.0779C23.019 15.5751 22.961 15.0817 22.873 14.5996C23.097 14.6286 23.324 14.6431 23.555 14.6431C23.786 14.6431 24.013 14.6286 24.237 14.5996C24.149 15.0817 24.091 15.5751 24.068 16.0779C24.554 16.0541 25.031 15.9941 25.497 15.9031C25.469 16.1348 25.455 16.3696 25.455 16.6086C25.455 16.8475 25.469 17.0824 25.497 17.3141C25.031 17.2231 24.554 17.1631 24.068 17.1393C24.091 17.642 24.149 18.1355 24.237 18.6175C24.013 18.5886 23.786 18.5741 23.555 18.5741C23.324 18.5741 23.097 18.5886 22.873 18.6175C22.961 18.1355 23.019 17.642 23.042 17.1393C22.556 17.1631 22.079 17.2231 21.613 17.3141C21.641 17.0824 21.655 16.8475 21.655 16.6086C21.655 16.3696 21.641 16.1348 21.613 15.9031Z" fill="#DE2910"/>
<path fill-rule="evenodd" clip-rule="evenodd" d="M4.50302 15.9031C4.96901 15.9941 5.44601 16.0541 5.93201 16.0779C5.90902 15.5751 5.85101 15.0817 5.76301 14.5996C5.98702 14.6286 6.21401 14.6431 6.44501 14.6431C6.67601 14.6431 6.90301 14.6286 7.12702 14.5996C7.03901 15.0817 6.98101 15.5751 6.95801 16.0779C7.44401 16.0541 7.92101 15.9941 8.38702 15.9031C8.35901 16.1348 8.34502 16.3696 8.34502 16.6086C8.34502 16.8475 8.35901 17.0824 8.38702 17.3141C7.92101 17.2231 7.44401 17.1631 6.95801 17.1393C6.98101 17.642 7.03901 18.1355 7.12702 18.6175C6.90301 18.5886 6.67601 18.5741 6.44501 18.5741C6.21401 18.5741 5.98702 18.5886 5.76301 18.6175C5.85101 18.1355 5.90902 17.642 5.93201 17.1393C5.44601 17.1631 4.96901 17.2231 4.50302 17.3141C4.53101 17.0824 4.54502 16.8475 4.54502 16.6086C4.54502 16.3696 4.53101 16.1348 4.50302 15.9031Z" fill="#DE2910"/>
<path fill-rule="evenodd" clip-rule="evenodd" d="M4.50302 3.37571C4.96901 3.46675 5.44601 3.52675 5.93201 3.55054C5.90902 3.04778 5.85101 2.55433 5.76301 2.07227C5.98702 2.10123 6.21401 2.11571 6.44501 2.11571C6.67601 2.11571 6.90301 2.10123 7.12702 2.07227C7.03901 2.55433 6.98101 3.04778 6.95801 3.55054C7.44401 3.52675 7.92101 3.46675 8.38702 3.37571C8.35901 3.60744 8.34502 3.84227 8.34502 4.08123C8.34502 4.3202 8.35901 4.55502 8.38702 4.78675C7.92101 4.69571 7.44401 4.63571 6.95801 4.61192C6.98101 5.11468 7.03901 5.60813 7.12702 6.0902C6.90301 6.06123 6.67601 6.04675 6.44501 6.04675C6.21401 6.04675 5.98702 6.06123 5.76301 6.0902C5.85101 5.60813 5.90902 5.11468 5.93201 4.61192C5.44601 4.63571 4.96901 4.69571 4.50302 4.78675C4.53101 4.55502 4.54502 4.3202 4.54502 4.08123C4.54502 3.84227 4.53101 3.60744 4.50302 3.37571Z" fill="#DE2910"/>
</g>
<rect x="0.5" y="0.5" width="29" height="19.6897" stroke="black" stroke-opacity="0.1"/>
<defs>
<clipPath id="clip0_145_797">
<rect width="30" height="20.6897" fill="white"/>
</clipPath>
</defs>
</svg>
