<svg width="60" height="60" viewBox="0 0 60 60" fill="none" xmlns="http://www.w3.org/2000/svg">
<path d="M42.4303 14.2083L41.0525 16.6799L38.2761 17.2265C38.0504 17.2709 37.8407 17.3748 37.6686 17.5275C37.4965 17.6801 37.3682 17.876 37.2971 18.0947C37.226 18.3135 37.2146 18.5473 37.2642 18.772C37.3137 18.9966 37.4223 19.204 37.5787 19.3727L39.5036 21.4469L39.1655 24.2561C39.138 24.4845 39.172 24.7161 39.264 24.927C39.356 25.1378 39.5026 25.3203 39.6887 25.4556C39.8748 25.5908 40.0937 25.6739 40.3226 25.6962C40.5516 25.7186 40.7824 25.6794 40.9911 25.5827L43.5587 24.3929L46.126 25.5827C46.3348 25.6793 46.5655 25.7185 46.7945 25.6961C47.0234 25.6737 47.2423 25.5906 47.4284 25.4554C47.6144 25.3202 47.7611 25.1377 47.8531 24.9269C47.945 24.7161 47.9791 24.4845 47.9516 24.2561L47.6136 21.4467L49.5384 19.3727C49.695 19.2041 49.8037 18.9967 49.8533 18.772C49.9029 18.5473 49.8915 18.3135 49.8204 18.0946C49.7493 17.8758 49.621 17.6799 49.4488 17.5273C49.2766 17.3747 49.0668 17.2708 48.841 17.2265L46.0647 16.6799L44.6869 14.2083C44.5749 14.0073 44.4112 13.8399 44.2129 13.7234C44.0145 13.6069 43.7886 13.5454 43.5586 13.5454C43.3285 13.5454 43.1026 13.6069 42.9043 13.7234C42.7059 13.8399 42.5423 14.0073 42.4303 14.2083ZM43.5587 15.0687L44.9963 17.648C45.046 17.7371 45.1144 17.8143 45.197 17.8742C45.2795 17.9341 45.374 17.9753 45.4741 17.995L48.3715 18.5655L46.3627 20.7299C46.2933 20.8046 46.241 20.8936 46.2095 20.9906C46.1781 21.0876 46.1681 21.1902 46.1803 21.2915L46.5331 24.2232L43.8538 22.9818C43.7613 22.9389 43.6605 22.9166 43.5586 22.9166C43.4566 22.9166 43.3559 22.9389 43.2634 22.9818L40.5841 24.2232L40.9369 21.2915C40.9491 21.1902 40.9391 21.0876 40.9076 20.9906C40.8761 20.8936 40.8239 20.8046 40.7545 20.7299L38.7457 18.5655L41.6431 17.995C41.7431 17.9753 41.8377 17.9341 41.9202 17.8742C42.0027 17.8143 42.0712 17.7371 42.1209 17.648L43.5587 15.0687Z" fill="#F9CC0B"/>
<path d="M43.5585 9.14453C37.7748 9.14453 33.0791 13.8402 33.0791 19.624C33.0791 25.4076 37.7748 30.1032 43.5585 30.1032C49.3421 30.1032 54.0378 25.4076 54.0378 19.624C54.0378 13.8402 49.3421 9.14453 43.5585 9.14453ZM43.5585 10.5491C48.567 10.5491 52.6334 14.6153 52.6334 19.624C52.6334 24.6325 48.567 28.6988 43.5585 28.6988C38.5499 28.6988 34.4837 24.6325 34.4837 19.624C34.4837 14.6153 38.5499 10.5491 43.5585 10.5491Z" fill="#F9CC0B"/>
<path d="M35.686 25.9051L32.9282 30.682C32.7883 30.9245 32.7127 31.1988 32.7089 31.4788C32.7051 31.7587 32.773 32.035 32.9063 32.2812C33.0395 32.5274 33.2337 32.7354 33.4702 32.8853C33.7067 33.0351 33.9776 33.1219 34.2572 33.1373L36.4785 33.2597L37.6952 35.1224C37.8483 35.3568 38.0589 35.5481 38.307 35.678C38.5551 35.8079 38.8323 35.872 39.1122 35.8643C39.3921 35.8566 39.6654 35.7773 39.9059 35.634C40.1464 35.4906 40.3462 35.288 40.4862 35.0455L43.5054 29.8161C43.5984 29.6547 43.6236 29.4631 43.5754 29.2832C43.5272 29.1034 43.4096 28.95 43.2484 28.8568C43.0871 28.7638 42.8954 28.7386 42.7156 28.7868C42.5357 28.835 42.3823 28.9526 42.2891 29.1138L39.2699 34.3434C39.2498 34.378 39.2213 34.4069 39.1869 34.4273C39.1525 34.4478 39.1135 34.4591 39.0735 34.4602C39.0336 34.4613 38.994 34.4522 38.9585 34.4336C38.9231 34.4151 38.893 34.3878 38.8711 34.3543L37.4601 32.194C37.3998 32.1018 37.3187 32.025 37.2233 31.9699C37.1279 31.9148 37.0208 31.883 36.9108 31.877L34.3344 31.7351C34.2945 31.7328 34.2558 31.7203 34.2221 31.6989C34.1883 31.6774 34.1606 31.6477 34.1416 31.6125C34.1226 31.5774 34.1129 31.5379 34.1134 31.498C34.1139 31.458 34.1247 31.4188 34.1446 31.3842L36.9024 26.6074C36.9955 26.4461 37.0207 26.2544 36.9725 26.0746C36.9243 25.8947 36.8066 25.7413 36.6454 25.6481C36.484 25.5551 36.2924 25.53 36.1125 25.5781C35.9327 25.6263 35.7793 25.7439 35.686 25.9051Z" fill="#F9CC0B"/>
<path d="M50.2223 26.6074L52.9802 31.3842C53.0002 31.4188 53.011 31.458 53.0115 31.498C53.0121 31.538 53.0023 31.5775 52.9833 31.6127C52.9643 31.6479 52.9365 31.6776 52.9027 31.699C52.8689 31.7204 52.8302 31.7328 52.7903 31.7351L50.214 31.877C50.104 31.883 49.9969 31.9148 49.9015 31.9699C49.8061 32.025 49.725 32.1017 49.6647 32.194L48.2536 34.3543C48.2317 34.3878 48.2016 34.4152 48.1662 34.4337C48.1308 34.4523 48.0912 34.4615 48.0512 34.4604C48.0112 34.4593 47.9722 34.4479 47.9378 34.4275C47.9035 34.407 47.8749 34.378 47.855 34.3434L44.8432 29.1269C44.75 28.9657 44.5966 28.8481 44.4168 28.7999C44.2369 28.7517 44.0453 28.7769 43.884 28.8699C43.7227 28.9631 43.6051 29.1165 43.5569 29.2963C43.5087 29.4762 43.5339 29.6679 43.627 29.8292L46.6386 35.0455C46.7786 35.288 46.9783 35.4906 47.2189 35.634C47.4594 35.7773 47.7326 35.8566 48.0125 35.8644C48.2924 35.8721 48.5696 35.8079 48.8177 35.678C49.0657 35.5481 49.2764 35.3568 49.4295 35.1224L50.6461 33.2597L52.8675 33.1373C53.147 33.1219 53.418 33.0351 53.6545 32.8853C53.891 32.7354 54.0851 32.5274 54.2184 32.2812C54.3516 32.035 54.4196 31.7587 54.4158 31.4788C54.4119 31.1988 54.3364 30.9245 54.1964 30.682L51.4386 25.9051C51.3454 25.7439 51.192 25.6263 51.0121 25.5781C50.8323 25.53 50.6406 25.5551 50.4793 25.6481C50.3181 25.7413 50.2005 25.8947 50.1523 26.0746C50.1041 26.2545 50.1293 26.4461 50.2223 26.6074Z" fill="#F9CC0B"/>
<path d="M47.4543 56.4139C47.4543 56.4139 48.1142 55.1798 47.4543 55.0253V55.0094H47.3038C45.6232 55.0094 44.2607 53.647 44.2607 51.9663V29.4735C44.2607 29.0859 43.946 28.7712 43.5586 28.7712C43.3723 28.7713 43.1937 28.8453 43.0621 28.977C42.9304 29.1087 42.8563 29.2873 42.8563 29.4735V51.9663C42.8546 53.0972 43.2855 54.1859 44.0606 55.0094H9.95637C9.14931 55.0094 8.37532 54.6887 7.80465 54.118C7.23399 53.5474 6.9134 52.7733 6.9134 51.9663V4.91584H42.8563V9.79606C42.8564 9.98227 42.9304 10.1608 43.0621 10.2925C43.1938 10.4241 43.3724 10.4981 43.5586 10.4982C43.7448 10.4981 43.9233 10.4241 44.055 10.2924C44.1866 10.1608 44.2606 9.98225 44.2607 9.79606V4.21353C44.2607 4.0273 44.1867 3.84869 44.0551 3.71699C43.9234 3.58529 43.7448 3.51128 43.5586 3.51123H6.21109C6.02483 3.51123 5.8462 3.58522 5.71449 3.71693C5.58278 3.84864 5.50879 4.02727 5.50879 4.21353V51.9663C5.50883 53.1459 5.97745 54.2771 6.81157 55.1112C7.64568 55.9453 8.77695 56.4139 9.95654 56.4139H47.4543Z" fill="#F9CC0B"/>
<path d="M47.6951 56.4138C48.2792 56.4139 48.8576 56.2989 49.3972 56.0754C49.9368 55.8519 50.4271 55.5243 50.8402 55.1113C51.2532 54.6983 51.5808 54.2079 51.8043 53.6683C52.0277 53.1287 52.1427 52.5503 52.1427 51.9662V44.674C52.1427 44.4878 52.0687 44.3091 51.937 44.1774C51.8053 44.0457 51.6266 43.9717 51.4404 43.9717H43.6377C43.4514 43.9718 43.2729 44.0458 43.1412 44.1775C43.0095 44.3092 42.9355 44.4878 42.9354 44.674C42.9355 44.8602 43.0096 45.0388 43.1412 45.1704C43.2729 45.3021 43.4515 45.3761 43.6377 45.3761H50.7381V51.9662C50.738 52.7732 50.4174 53.5472 49.8467 54.1179C49.2761 54.6886 48.5021 55.0092 47.6951 55.0094C47.5089 55.0094 47.3303 55.0835 47.1986 55.2152C47.0669 55.3468 46.9929 55.5254 46.9928 55.7117C46.9929 55.8979 47.067 56.0764 47.1986 56.208C47.3303 56.3397 47.5089 56.4137 47.6951 56.4138ZM14.3214 15.6696H19.5089C19.8966 15.6696 20.2112 15.3549 20.2112 14.9673C20.2111 14.7811 20.137 14.6025 20.0054 14.4709C19.8737 14.3392 19.6951 14.2652 19.5089 14.2651H14.3214C14.1352 14.2652 13.9567 14.3392 13.825 14.4709C13.6933 14.6025 13.6193 14.7811 13.6191 14.9673C13.6191 15.3549 13.9338 15.6696 14.3214 15.6696ZM14.3214 20.6679H23.699C23.8852 20.6678 24.0637 20.5938 24.1954 20.4621C24.3271 20.3304 24.4011 20.1519 24.4013 19.9656C24.4011 19.7794 24.327 19.6009 24.1954 19.4693C24.0637 19.3377 23.8852 19.2636 23.699 19.2635H14.3214C14.1352 19.2636 13.9567 19.3376 13.825 19.4692C13.6933 19.6009 13.6193 19.7794 13.6191 19.9656C13.6191 20.3533 13.9338 20.6679 14.3214 20.6679ZM14.3214 25.6663H19.5089C19.8966 25.6663 20.2112 25.3517 20.2112 24.9642C20.2112 24.5765 19.8966 24.2619 19.5089 24.2619H14.3214C14.1352 24.262 13.9566 24.336 13.8249 24.4677C13.6933 24.5994 13.6192 24.7779 13.6191 24.9642C13.6193 25.1504 13.6933 25.3289 13.825 25.4606C13.9567 25.5922 14.1352 25.6662 14.3214 25.6663ZM14.3214 30.6647H29.2026C29.5903 30.6647 29.9049 30.35 29.9049 29.9626C29.9049 29.5749 29.5903 29.2602 29.2026 29.2602H14.3214C14.1352 29.2603 13.9566 29.3344 13.8249 29.466C13.6933 29.5977 13.6192 29.7763 13.6191 29.9626C13.6193 30.1488 13.6933 30.3273 13.825 30.4589C13.9567 30.5906 14.1352 30.6646 14.3214 30.6647ZM14.3214 35.6632H29.2026C29.5903 35.6632 29.9049 35.3486 29.9049 34.9609C29.9049 34.5733 29.5903 34.2586 29.2026 34.2586H14.3214C13.9338 34.2586 13.6191 34.5733 13.6191 34.9609C13.6191 35.3486 13.9338 35.6632 14.3214 35.6632ZM14.3214 40.6616H29.2026C29.5903 40.6616 29.9049 40.3469 29.9049 39.9593C29.9048 39.7731 29.8308 39.5945 29.6991 39.4629C29.5674 39.3312 29.3888 39.2572 29.2026 39.2572H14.3214C14.1352 39.2572 13.9567 39.3312 13.825 39.4629C13.6933 39.5945 13.6193 39.7731 13.6191 39.9593C13.6191 40.3469 13.9338 40.6616 14.3214 40.6616ZM14.3214 45.66H29.2026C29.5903 45.66 29.9049 45.3453 29.9049 44.9577C29.9048 44.7715 29.8308 44.5929 29.6991 44.4613C29.5674 44.3296 29.3888 44.2556 29.2026 44.2555H14.3214C14.1352 44.2556 13.9567 44.3296 13.825 44.4613C13.6933 44.5929 13.6193 44.7715 13.6191 44.9577C13.6191 45.3453 13.9338 45.66 14.3214 45.66Z" fill="#F9CC0B"/>
</svg>
