<svg width="60" height="60" viewBox="0 0 60 60" fill="none" xmlns="http://www.w3.org/2000/svg">
<path d="M27.2877 39.1901L26.3301 40.3737C27.1841 41.1669 28.2698 41.6655 29.428 41.7963V42.687H30.6379V41.8362C32.5663 41.703 33.6698 40.5865 33.6698 39.057C33.6698 37.4351 32.4599 36.8102 30.6379 36.3977V33.8979C31.3406 34.0682 31.9897 34.4111 32.5265 34.8954L33.4302 33.672C32.6529 32.9763 31.6756 32.5442 30.6379 32.4373V31.6113H29.428V32.4223C27.7926 32.6215 26.6891 33.7254 26.6891 35.1612C26.6891 36.7301 27.7926 37.3151 29.428 37.7393V40.332C28.6243 40.1523 27.8845 39.7576 27.2877 39.1901ZM30.6379 38.0463C31.5824 38.3276 32.0076 38.6051 32.0076 39.2182C32.0076 39.8032 31.5426 40.3085 30.6379 40.4149V38.0463ZM28.3645 35.0154C28.3865 34.7326 28.5036 34.4657 28.6967 34.258C28.8898 34.0503 29.1476 33.9141 29.428 33.8716V36.0785C28.7104 35.8263 28.3645 35.547 28.3645 35.0154Z" fill="#F9CC0B"/>
<path d="M30 45.75C31.7014 45.7501 33.3646 45.2456 34.7793 44.3004C36.194 43.3552 37.2966 42.0117 37.9477 40.4398C38.5988 38.8679 38.7691 37.1382 38.4372 35.4695C38.1052 33.8008 37.2858 32.2681 36.0827 31.065C34.8796 29.862 33.3467 29.0428 31.6779 28.7111C30.0092 28.3793 28.2796 28.5498 26.7077 29.2011C25.1359 29.8523 23.7925 30.9551 22.8475 32.3699C21.9024 33.7847 21.3982 35.4479 21.3984 37.1493C21.4015 39.4296 22.3088 41.6155 23.9213 43.2278C25.5337 44.8401 27.7198 45.7471 30 45.75ZM30 30.1875C31.3768 30.1874 32.7228 30.5956 33.8676 31.3604C35.0125 32.1253 35.9048 33.2124 36.4318 34.4844C36.9588 35.7564 37.0967 37.1561 36.8282 38.5065C36.5597 39.8569 35.8968 41.0974 34.9233 42.071C33.9498 43.0446 32.7094 43.7077 31.359 43.9764C30.0087 44.2451 28.609 44.1074 27.3369 43.5806C26.0648 43.0537 24.9775 42.1616 24.2125 41.0168C23.4475 39.8721 23.0392 38.5262 23.0391 37.1493C23.0412 35.3037 23.7752 33.5343 25.0801 32.2292C26.3851 30.9241 28.1544 30.1898 30 30.1875Z" fill="#F9CC0B"/>
<path d="M57.0435 17.0098C57.1512 17.0098 57.2579 16.9887 57.3575 16.9474C57.457 16.9062 57.5475 16.8458 57.6237 16.7696C57.6999 16.6935 57.7603 16.603 57.8015 16.5034C57.8427 16.4039 57.8639 16.2972 57.8638 16.1895V12.6124C57.8637 12.4433 57.8114 12.2783 57.714 12.14C57.6166 12.0017 57.4788 11.8969 57.3196 11.8399L30.2755 2.1832C30.0972 2.11992 29.9026 2.11992 29.7243 2.1832L2.68067 11.8399C2.52133 11.8968 2.38347 12.0016 2.28597 12.1399C2.18846 12.2782 2.13608 12.4432 2.13599 12.6124V16.1895C2.13599 16.407 2.22241 16.6157 2.37625 16.7695C2.53009 16.9233 2.73874 17.0098 2.9563 17.0098H4.28146V19.1421H2.9563C2.73874 19.1421 2.53009 19.2285 2.37625 19.3824C2.22241 19.5362 2.13599 19.7449 2.13599 19.9624V23.8212C2.13599 24.0387 2.22241 24.2474 2.37625 24.4012C2.53009 24.5551 2.73874 24.6415 2.9563 24.6415H5.97411V27.8234C5.97411 28.0409 6.06054 28.2496 6.21438 28.4034C6.36821 28.5572 6.57686 28.6437 6.79442 28.6437H7.52333V45.656H6.79677C6.57925 45.6561 6.37067 45.7426 6.21686 45.8964C6.06304 46.0502 5.97658 46.2588 5.97645 46.4763V49.6582H2.9563C2.73874 49.6582 2.53009 49.7446 2.37625 49.8985C2.22241 50.0523 2.13599 50.261 2.13599 50.4785V57.0448C2.13599 57.2623 2.22241 57.471 2.37625 57.6248C2.53009 57.7787 2.73874 57.8651 2.9563 57.8651H57.0435C57.1512 57.8651 57.2579 57.844 57.3575 57.8028C57.457 57.7616 57.5475 57.7011 57.6237 57.625C57.6999 57.5488 57.7603 57.4583 57.8015 57.3588C57.8427 57.2592 57.8639 57.1525 57.8638 57.0448V50.4771C57.8639 50.3694 57.8427 50.2627 57.8015 50.1631C57.7603 50.0636 57.6999 49.9731 57.6237 49.8969C57.5475 49.8207 57.457 49.7603 57.3575 49.7191C57.2579 49.6779 57.1512 49.6567 57.0435 49.6568H54.0257V46.4749C54.0257 46.2574 53.9393 46.0487 53.7854 45.8949C53.6316 45.741 53.4229 45.6546 53.2054 45.6546H52.4765V28.6437H53.2054C53.3131 28.6437 53.4198 28.6226 53.5194 28.5814C53.6189 28.5402 53.7094 28.4797 53.7855 28.4035C53.8617 28.3274 53.9222 28.2369 53.9634 28.1374C54.0046 28.0378 54.0257 27.9311 54.0257 27.8234V24.6415H57.0435C57.1512 24.6415 57.2579 24.6204 57.3575 24.5792C57.457 24.538 57.5475 24.4775 57.6237 24.4014C57.6999 24.3252 57.7603 24.2347 57.8015 24.1352C57.8427 24.0356 57.8639 23.9289 57.8638 23.8212V19.9624C57.8639 19.8547 57.8427 19.748 57.8015 19.6484C57.7603 19.5489 57.6999 19.4584 57.6237 19.3822C57.5475 19.306 57.457 19.2456 57.3575 19.2044C57.2579 19.1632 57.1512 19.142 57.0435 19.1421H55.7183V17.0098H57.0435ZM3.77661 13.1909L29.9999 3.82711L56.2232 13.1909V15.3691H3.77661V13.1909ZM15.8235 24.6415V27.003H7.61474V24.6415H15.8235ZM42.5376 24.6415V27.8234C42.5375 27.9311 42.5587 28.0378 42.5999 28.1374C42.6411 28.2369 42.7015 28.3274 42.7777 28.4035C42.8539 28.4797 42.9443 28.5402 43.0439 28.5814C43.1434 28.6226 43.2501 28.6437 43.3579 28.6437H44.0858V45.656H43.3593C43.1417 45.656 42.9331 45.7424 42.7792 45.8963C42.6254 46.0501 42.539 46.2588 42.539 46.4763V49.6582H17.4632V46.4749C17.4631 46.2574 17.3766 46.0488 17.2228 45.895C17.069 45.7412 16.8604 45.6547 16.6429 45.6546H15.914V28.6437H16.6429C16.8604 28.6437 17.0691 28.5572 17.2229 28.4034C17.3767 28.2496 17.4632 28.0409 17.4632 27.8234V24.6415H42.5376ZM9.16255 28.6437H14.2719V45.656H9.16395L9.16255 28.6437ZM7.61567 47.2952H15.8235V49.6568H7.61474L7.61567 47.2952ZM56.225 56.223H3.77661V51.2974H56.2232L56.225 56.223ZM44.1782 49.6568V47.2966H52.386V49.6582L44.1782 49.6568ZM50.8344 45.6546H45.7265V28.6437H50.8358L50.8344 45.6546ZM52.3813 27.003H44.1772V24.6415H52.385L52.3813 27.003ZM56.2194 23.0009H3.77661V20.7827H56.2232L56.2194 23.0009ZM54.074 19.1421H5.92208V17.0098H54.0777L54.074 19.1421Z" fill="#F9CC0B"/>
</svg>
