<svg width="65" height="46" viewBox="0 0 65 46" fill="none" xmlns="http://www.w3.org/2000/svg">
<path d="M16.1484 21.0236L10.9687 19.9064C9.54687 19.6017 8.22656 20.7189 8.22656 22.1408V24.2736C8.22656 26.0001 9.54687 26.4064 11.1719 26.4064H16.8594C17.9766 26.4064 19.0937 26.2033 19.0937 24.9845V24.6798C19.0937 22.8517 17.875 21.3283 16.1484 21.0236ZM10.1562 24.2736V22.0392C10.1562 21.8361 10.3594 21.633 10.5625 21.7345L15.7422 22.8517C16.4531 23.0548 16.9609 23.6642 17.0625 24.3751C13.5078 24.3751 10.4609 24.3751 10.1562 24.2736Z" fill="#F9CC0B"/>
<path d="M62.2578 10.1563L54.9453 6.70312C52.5078 5.58594 49.8672 5.17969 47.3281 5.6875L46.2109 3.45313C45.3984 1.42188 43.4688 0 41.2344 0H17.4688C15.2344 0 13.3047 1.32031 12.4922 3.35156L8.53125 11.5781C7.61719 10.2578 6.09375 9.44531 4.46875 9.44531H2.74219C1.21875 9.44531 0 10.6641 0 12.1875V13.3047C0 14.8281 1.21875 16.0469 2.74219 16.0469H5.38281C4.26562 17.4688 3.75781 19.2969 3.75781 21.125V27.2188C3.75781 29.5547 4.57031 31.7891 6.19531 33.7188V38.2891C6.19531 40.3203 7.82031 41.9453 9.85156 41.9453H13.6094C15.6406 41.9453 17.2656 40.3203 17.2656 38.2891V36.4609H37.5781C42.0469 42.5547 49.0547 45.1953 49.1562 45.1953C49.3594 45.2969 49.5625 45.2969 49.8672 45.1953C49.9688 45.0938 65 39.6094 65 25.8984V14.5234C65 12.6953 63.8828 10.9688 62.2578 10.1563ZM14.3203 4.16406C14.8281 2.84375 16.0469 2.03125 17.4688 2.03125H41.2344C42.6562 2.03125 43.875 2.84375 44.4844 4.26563L45.3984 6.19531C44.9922 6.29688 44.5859 6.5 44.1797 6.70312L36.8672 10.1563C35.2422 10.9688 34.125 12.5938 34.125 14.4219H9.24219C9.64844 13.8125 9.24219 14.8281 14.3203 4.16406ZM2.03125 13.3047V12.1875C2.03125 11.7813 2.33594 11.4766 2.74219 11.4766H4.46875C6.5 11.4766 7.21094 13.3047 7.41406 13.6094C7.3125 13.8125 7.21094 13.9141 7.00781 14.1172H2.74219C2.33594 14.0156 2.03125 13.7109 2.03125 13.3047ZM15.2344 38.1875C15.2344 39.1016 14.5234 39.8125 13.6094 39.8125H9.75C8.83594 39.9141 8.125 39.1016 8.125 38.1875V35.2422C9.34375 35.9531 10.7656 36.3594 12.1875 36.3594H15.2344V38.1875ZM12.0859 34.4297C8.42969 34.4297 5.58594 30.875 5.58594 27.1172V21.0234C5.58594 19.2969 6.29688 17.6719 7.51562 16.3516H34.125V25.2891H22.9531C22.4453 25.2891 21.9375 25.6953 21.9375 26.3047C21.9375 26.9141 22.3438 27.3203 22.9531 27.3203H34.2266C34.3281 28.0312 34.3281 28.6406 34.5312 29.25H22.9531C22.4453 29.25 21.9375 29.6563 21.9375 30.2656C21.9375 30.875 22.3438 31.2813 22.9531 31.2813H34.9375C35.3438 32.3984 35.75 33.5156 36.3594 34.4297H12.0859ZM62.9688 25.8984C62.9688 37.1719 51.5938 42.3516 49.5625 43.1641C42.25 40.2188 36.1562 33.9219 36.1562 25.8984V14.5234C36.1562 13.4063 36.7656 12.4922 37.7812 11.9844L45.0938 8.53125C48.0391 7.10938 51.2891 7.10938 54.2344 8.53125L61.5469 11.9844C62.4609 12.4922 63.1719 13.4063 63.1719 14.5234V25.8984H62.9688Z" fill="#F9CC0B"/>
<path d="M59.5156 14.3203L52.8125 11.1719C50.7812 10.1562 48.2422 10.1562 46.2109 11.1719L39.6094 14.3203C39.3047 14.5234 39 14.8281 39 15.2344V25.8984C39 33.9219 46.0078 38.2891 49.0547 39.8125C49.3594 39.9141 49.6641 39.9141 49.9687 39.8125C53.0156 38.2891 60.0234 33.9219 60.0234 25.8984V15.2344C60.0234 14.8281 59.8203 14.5234 59.5156 14.3203ZM58.0938 25.8984C58.0938 32.3984 52.4062 36.2578 49.5625 37.7813C46.2109 35.9531 41.0312 32.2969 41.0312 25.8984V15.8437L47.125 12.8984C48.6484 12.1875 50.4766 12.1875 52 12.8984L58.0938 15.8437V25.8984Z" fill="#F9CC0B"/>
<path d="M45.6016 25.5937C45.1953 25.289 44.5859 25.3905 44.1797 25.7968C43.7734 26.203 43.9766 26.8124 44.3828 27.2187L48.2422 30.164C48.6484 30.4687 49.2578 30.3671 49.6641 29.9609L55.3516 22.5468C55.6563 22.1405 55.5547 21.5312 55.1484 21.1249C54.7422 20.8202 54.1328 20.9218 53.7266 21.328L48.6484 27.9296L45.6016 25.5937Z" fill="#F9CC0B"/>
</svg>
