<svg width="136" height="66" viewBox="0 0 136 66" fill="none" xmlns="http://www.w3.org/2000/svg">
<path d="M19.52 35V9.8H31.04C33.344 9.8 35.324 10.172 36.98 10.916C38.66 11.66 39.956 12.74 40.868 14.156C41.78 15.548 42.236 17.204 42.236 19.124C42.236 21.02 41.78 22.664 40.868 24.056C39.956 25.424 38.66 26.48 36.98 27.224C35.324 27.944 33.344 28.304 31.04 28.304H23.48L26.648 25.316V35H19.52ZM35.108 35L28.844 25.82H36.44L42.74 35H35.108ZM26.648 26.072L23.48 22.796H30.608C32.096 22.796 33.2 22.472 33.92 21.824C34.664 21.176 35.036 20.276 35.036 19.124C35.036 17.948 34.664 17.036 33.92 16.388C33.2 15.74 32.096 15.416 30.608 15.416H23.48L26.648 12.14V26.072ZM58.8764 35.504C56.8604 35.504 55.0004 35.18 53.2964 34.532C51.5924 33.884 50.1044 32.972 48.8324 31.796C47.5844 30.596 46.6124 29.204 45.9164 27.62C45.2204 26.036 44.8724 24.296 44.8724 22.4C44.8724 20.504 45.2204 18.764 45.9164 17.18C46.6124 15.596 47.5844 14.216 48.8324 13.04C50.1044 11.84 51.5924 10.916 53.2964 10.268C55.0004 9.62 56.8604 9.296 58.8764 9.296C60.9164 9.296 62.7764 9.62 64.4564 10.268C66.1604 10.916 67.6364 11.84 68.8844 13.04C70.1324 14.216 71.1044 15.596 71.8004 17.18C72.5204 18.764 72.8804 20.504 72.8804 22.4C72.8804 24.296 72.5204 26.048 71.8004 27.656C71.1044 29.24 70.1324 30.62 68.8844 31.796C67.6364 32.972 66.1604 33.884 64.4564 34.532C62.7764 35.18 60.9164 35.504 58.8764 35.504ZM58.8764 29.6C59.8364 29.6 60.7244 29.432 61.5404 29.096C62.3804 28.76 63.1004 28.28 63.7004 27.656C64.3244 27.008 64.8044 26.24 65.1404 25.352C65.5004 24.464 65.6804 23.48 65.6804 22.4C65.6804 21.296 65.5004 20.312 65.1404 19.448C64.8044 18.56 64.3244 17.804 63.7004 17.18C63.1004 16.532 62.3804 16.04 61.5404 15.704C60.7244 15.368 59.8364 15.2 58.8764 15.2C57.9164 15.2 57.0164 15.368 56.1764 15.704C55.3604 16.04 54.6404 16.532 54.0164 17.18C53.4164 17.804 52.9364 18.56 52.5764 19.448C52.2404 20.312 52.0724 21.296 52.0724 22.4C52.0724 23.48 52.2404 24.464 52.5764 25.352C52.9364 26.24 53.4164 27.008 54.0164 27.656C54.6404 28.28 55.3604 28.76 56.1764 29.096C57.0164 29.432 57.9164 29.6 58.8764 29.6ZM76.6138 35V9.8H83.7418V29.348H95.7658V35H76.6138ZM105.21 20.852H116.838V26.36H105.21V20.852ZM105.714 35H98.5864V9.8H118.35V15.308H105.714V35Z" fill="#EF3124"/>
<path d="M0.838 61L6.454 48.4H9.334L14.968 61H11.908L7.3 49.876H8.452L3.826 61H0.838ZM3.646 58.3L4.42 56.086H10.9L11.692 58.3H3.646ZM21.6096 61.216C19.8216 61.216 18.4236 60.718 17.4156 59.722C16.4076 58.726 15.9036 57.304 15.9036 55.456V48.4H18.8196V55.348C18.8196 56.548 19.0656 57.412 19.5576 57.94C20.0496 58.468 20.7396 58.732 21.6276 58.732C22.5156 58.732 23.2056 58.468 23.6976 57.94C24.1896 57.412 24.4356 56.548 24.4356 55.348V48.4H27.3156V55.456C27.3156 57.304 26.8116 58.726 25.8036 59.722C24.7956 60.718 23.3976 61.216 21.6096 61.216ZM32.5962 61V50.776H28.5642V48.4H39.5442V50.776H35.5122V61H32.5962ZM47.0574 61.216C46.0614 61.216 45.1374 61.054 44.2854 60.73C43.4454 60.406 42.7134 59.95 42.0894 59.362C41.4774 58.774 40.9974 58.084 40.6494 57.292C40.3134 56.5 40.1454 55.636 40.1454 54.7C40.1454 53.764 40.3134 52.9 40.6494 52.108C40.9974 51.316 41.4834 50.626 42.1074 50.038C42.7314 49.45 43.4634 48.994 44.3034 48.67C45.1434 48.346 46.0554 48.184 47.0394 48.184C48.0354 48.184 48.9474 48.346 49.7754 48.67C50.6154 48.994 51.3414 49.45 51.9534 50.038C52.5774 50.626 53.0634 51.316 53.4114 52.108C53.7594 52.888 53.9334 53.752 53.9334 54.7C53.9334 55.636 53.7594 56.506 53.4114 57.31C53.0634 58.102 52.5774 58.792 51.9534 59.38C51.3414 59.956 50.6154 60.406 49.7754 60.73C48.9474 61.054 48.0414 61.216 47.0574 61.216ZM47.0394 58.732C47.6034 58.732 48.1194 58.636 48.5874 58.444C49.0674 58.252 49.4874 57.976 49.8474 57.616C50.2074 57.256 50.4834 56.83 50.6754 56.338C50.8794 55.846 50.9814 55.3 50.9814 54.7C50.9814 54.1 50.8794 53.554 50.6754 53.062C50.4834 52.57 50.2074 52.144 49.8474 51.784C49.4994 51.424 49.0854 51.148 48.6054 50.956C48.1254 50.764 47.6034 50.668 47.0394 50.668C46.4754 50.668 45.9534 50.764 45.4734 50.956C45.0054 51.148 44.5914 51.424 44.2314 51.784C43.8714 52.144 43.5894 52.57 43.3854 53.062C43.1934 53.554 43.0974 54.1 43.0974 54.7C43.0974 55.288 43.1934 55.834 43.3854 56.338C43.5894 56.83 43.8654 57.256 44.2134 57.616C44.5734 57.976 44.9934 58.252 45.4734 58.444C45.9534 58.636 46.4754 58.732 47.0394 58.732ZM61.2225 61V48.4H64.1385V61H61.2225ZM67.1288 61V48.4H69.5408L74.9048 57.292H73.6268L78.9008 48.4H81.2948L81.3308 61H78.5948L78.5768 52.594H79.0808L74.8688 59.668H73.5548L69.2528 52.594H69.8648V61H67.1288ZM84.3202 61V48.4H89.7742C90.9022 48.4 91.8742 48.586 92.6902 48.958C93.5062 49.318 94.1362 49.84 94.5802 50.524C95.0242 51.208 95.2462 52.024 95.2462 52.972C95.2462 53.908 95.0242 54.718 94.5802 55.402C94.1362 56.086 93.5062 56.614 92.6902 56.986C91.8742 57.346 90.9022 57.526 89.7742 57.526H85.9402L87.2362 56.212V61H84.3202ZM87.2362 56.536L85.9402 55.15H89.6122C90.5122 55.15 91.1842 54.958 91.6282 54.574C92.0722 54.19 92.2942 53.656 92.2942 52.972C92.2942 52.276 92.0722 51.736 91.6282 51.352C91.1842 50.968 90.5122 50.776 89.6122 50.776H85.9402L87.2362 49.39V56.536ZM103.624 61.216C102.628 61.216 101.704 61.054 100.852 60.73C100.012 60.406 99.2798 59.95 98.6558 59.362C98.0438 58.774 97.5638 58.084 97.2158 57.292C96.8798 56.5 96.7118 55.636 96.7118 54.7C96.7118 53.764 96.8798 52.9 97.2158 52.108C97.5638 51.316 98.0498 50.626 98.6738 50.038C99.2978 49.45 100.03 48.994 100.87 48.67C101.71 48.346 102.622 48.184 103.606 48.184C104.602 48.184 105.514 48.346 106.342 48.67C107.182 48.994 107.908 49.45 108.52 50.038C109.144 50.626 109.63 51.316 109.978 52.108C110.326 52.888 110.5 53.752 110.5 54.7C110.5 55.636 110.326 56.506 109.978 57.31C109.63 58.102 109.144 58.792 108.52 59.38C107.908 59.956 107.182 60.406 106.342 60.73C105.514 61.054 104.608 61.216 103.624 61.216ZM103.606 58.732C104.17 58.732 104.686 58.636 105.154 58.444C105.634 58.252 106.054 57.976 106.414 57.616C106.774 57.256 107.05 56.83 107.242 56.338C107.446 55.846 107.548 55.3 107.548 54.7C107.548 54.1 107.446 53.554 107.242 53.062C107.05 52.57 106.774 52.144 106.414 51.784C106.066 51.424 105.652 51.148 105.172 50.956C104.692 50.764 104.17 50.668 103.606 50.668C103.042 50.668 102.52 50.764 102.04 50.956C101.572 51.148 101.158 51.424 100.798 51.784C100.438 52.144 100.156 52.57 99.9518 53.062C99.7598 53.554 99.6638 54.1 99.6638 54.7C99.6638 55.288 99.7598 55.834 99.9518 56.338C100.156 56.83 100.432 57.256 100.78 57.616C101.14 57.976 101.56 58.252 102.04 58.444C102.52 58.636 103.042 58.732 103.606 58.732ZM112.691 61V48.4H118.145C119.273 48.4 120.245 48.586 121.061 48.958C121.877 49.318 122.507 49.84 122.951 50.524C123.395 51.208 123.617 52.024 123.617 52.972C123.617 53.908 123.395 54.718 122.951 55.402C122.507 56.074 121.877 56.59 121.061 56.95C120.245 57.31 119.273 57.49 118.145 57.49H114.311L115.607 56.212V61H112.691ZM120.701 61L117.551 56.428H120.665L123.851 61H120.701ZM115.607 56.536L114.311 55.168H117.983C118.883 55.168 119.555 54.976 119.999 54.592C120.443 54.196 120.665 53.656 120.665 52.972C120.665 52.276 120.443 51.736 119.999 51.352C119.555 50.968 118.883 50.776 117.983 50.776H114.311L115.607 49.39V56.536ZM128.362 61V50.776H124.33V48.4H135.31V50.776H131.278V61H128.362Z" fill="white"/>
</svg>
