<svg width="127" height="70" viewBox="0 0 127 70" fill="none" xmlns="http://www.w3.org/2000/svg">
<path d="M9.57568 39.5158V11.0642H22.5229C25.1124 11.0642 27.3377 11.4842 29.1989 12.3242C31.087 13.1642 32.5436 14.3835 33.5686 15.9822C34.5936 17.5538 35.1061 19.4235 35.1061 21.5912C35.1061 23.7319 34.5936 25.588 33.5686 27.1596C32.5436 28.7041 31.087 29.8964 29.1989 30.7364C27.3377 31.5493 25.1124 31.9558 22.5229 31.9558H14.0263L17.5868 28.5822V39.5158H9.57568ZM27.0949 39.5158L20.0549 29.1512H28.592L35.6725 39.5158H27.0949ZM17.5868 29.4358L14.0263 25.7371H22.0374C23.7098 25.7371 24.9505 25.3712 25.7598 24.6396C26.5959 23.908 27.014 22.8919 27.014 21.5912C27.014 20.2635 26.5959 19.2338 25.7598 18.5022C24.9505 17.7706 23.7098 17.4048 22.0374 17.4048H14.0263L17.5868 13.7061V29.4358ZM53.8081 40.0848C51.5423 40.0848 49.4519 39.719 47.5368 38.9874C45.6217 38.2558 43.9493 37.2261 42.5197 35.8983C41.1171 34.5435 40.0247 32.9719 39.2424 31.1835C38.4602 29.3951 38.0691 27.4306 38.0691 25.29C38.0691 23.1493 38.4602 21.1848 39.2424 19.3964C40.0247 17.608 41.1171 16.05 42.5197 14.7222C43.9493 13.3674 45.6217 12.3241 47.5368 11.5925C49.4519 10.8609 51.5423 10.4951 53.8081 10.4951C56.1008 10.4951 58.1913 10.8609 60.0794 11.5925C61.9945 12.3241 63.6534 13.3674 65.056 14.7222C66.4586 16.05 67.5511 17.608 68.3333 19.3964C69.1425 21.1848 69.5471 23.1493 69.5471 25.29C69.5471 27.4306 69.1425 29.4087 68.3333 31.2241C67.5511 33.0125 66.4586 34.5706 65.056 35.8983C63.6534 37.2261 61.9945 38.2558 60.0794 38.9874C58.1913 39.719 56.1008 40.0848 53.8081 40.0848ZM53.8081 33.419C54.887 33.419 55.8851 33.2293 56.8022 32.85C57.7462 32.4706 58.5554 31.9287 59.2298 31.2241C59.9311 30.4925 60.4705 29.6254 60.8482 28.6229C61.2528 27.6203 61.4551 26.5093 61.4551 25.29C61.4551 24.0435 61.2528 22.9325 60.8482 21.9571C60.4705 20.9545 59.9311 20.1009 59.2298 19.3964C58.5554 18.6648 57.7462 18.1093 56.8022 17.73C55.8851 17.3506 54.887 17.1609 53.8081 17.1609C52.7292 17.1609 51.7177 17.3506 50.7736 17.73C49.8565 18.1093 49.0473 18.6648 48.346 19.3964C47.6716 20.1009 47.1322 20.9545 46.7276 21.9571C46.3499 22.9325 46.1611 24.0435 46.1611 25.29C46.1611 26.5093 46.3499 27.6203 46.7276 28.6229C47.1322 29.6254 47.6716 30.4925 48.346 31.2241C49.0473 31.9287 49.8565 32.4706 50.7736 32.85C51.7177 33.2293 52.7292 33.419 53.8081 33.419ZM73.743 39.5158V11.0642H81.7542V33.1345H95.2679V39.5158H73.743ZM105.883 23.5422H118.951V29.7609H105.883V23.5422ZM106.449 39.5158H98.4379V11.0642H120.65V17.2829H106.449V39.5158Z" fill="#EF3124"/>
<path d="M0.972168 65.4838L6.23199 53.629H8.92934L14.206 65.4838H11.3401L7.02434 55.0177H8.10327L3.77066 65.4838H0.972168ZM3.60208 62.9435L4.32699 60.8605H10.396L11.1378 62.9435H3.60208ZM20.4263 65.6871C18.7517 65.6871 17.4424 65.2185 16.4983 64.2814C15.5542 63.3443 15.0822 62.0064 15.0822 60.2677V53.629H17.8133V60.1661C17.8133 61.2951 18.0437 62.108 18.5045 62.6048C18.9653 63.1016 19.6115 63.35 20.4432 63.35C21.2749 63.35 21.9211 63.1016 22.3819 62.6048C22.8427 62.108 23.0731 61.2951 23.0731 60.1661V53.629H25.7704V60.2677C25.7704 62.0064 25.2984 63.3443 24.3543 64.2814C23.4103 65.2185 22.1009 65.6871 20.4263 65.6871ZM30.7162 65.4838V55.8645H26.94V53.629H37.2236V55.8645H33.4473V65.4838H30.7162ZM44.2602 65.6871C43.3273 65.6871 42.4619 65.5347 41.664 65.2298C40.8772 64.925 40.1917 64.4959 39.6073 63.9427C39.0341 63.3895 38.5845 62.7403 38.2586 61.9951C37.9439 61.25 37.7865 60.4371 37.7865 59.5564C37.7865 58.6758 37.9439 57.8629 38.2586 57.1177C38.5845 56.3726 39.0397 55.7234 39.6241 55.1701C40.2085 54.6169 40.8941 54.1879 41.6808 53.883C42.4676 53.5782 43.3217 53.4258 44.2433 53.4258C45.1761 53.4258 46.0303 53.5782 46.8058 53.883C47.5925 54.1879 48.2725 54.6169 48.8457 55.1701C49.4301 55.7234 49.8853 56.3726 50.2112 57.1177C50.5371 57.8516 50.7001 58.6645 50.7001 59.5564C50.7001 60.4371 50.5371 61.2556 50.2112 62.0121C49.8853 62.7572 49.4301 63.4064 48.8457 63.9597C48.2725 64.5016 47.5925 64.925 46.8058 65.2298C46.0303 65.5347 45.1818 65.6871 44.2602 65.6871ZM44.2433 63.35C44.7715 63.35 45.2548 63.2597 45.6931 63.079C46.1427 62.8984 46.5361 62.6387 46.8732 62.3C47.2104 61.9613 47.4689 61.5605 47.6487 61.0976C47.8398 60.6347 47.9353 60.1209 47.9353 59.5564C47.9353 58.9919 47.8398 58.4782 47.6487 58.0153C47.4689 57.5524 47.2104 57.1516 46.8732 56.8129C46.5473 56.4742 46.1595 56.2145 45.71 56.0338C45.2604 55.8532 44.7715 55.7629 44.2433 55.7629C43.7151 55.7629 43.2262 55.8532 42.7766 56.0338C42.3383 56.2145 41.9506 56.4742 41.6134 56.8129C41.2762 57.1516 41.0121 57.5524 40.8211 58.0153C40.6412 58.4782 40.5513 58.9919 40.5513 59.5564C40.5513 60.1097 40.6412 60.6234 40.8211 61.0976C41.0121 61.5605 41.2706 61.9613 41.5965 62.3C41.9337 62.6387 42.3271 62.8984 42.7766 63.079C43.2262 63.2597 43.7151 63.35 44.2433 63.35ZM57.5269 65.4838V53.629H60.258V65.4838H57.5269ZM63.0586 65.4838V53.629H65.3177L70.3415 61.9951H69.1445L74.084 53.629H76.3262L76.3599 65.4838H73.7974L73.7806 57.575H74.2526L70.3078 64.2306H69.0771L65.0479 57.575H65.6211V65.4838H63.0586ZM79.1598 65.4838V53.629H84.2679C85.3243 53.629 86.2347 53.804 86.9989 54.154C87.7632 54.4927 88.3532 54.9838 88.7691 55.6274C89.1849 56.2709 89.3928 57.0387 89.3928 57.9306C89.3928 58.8113 89.1849 59.5734 88.7691 60.2169C88.3532 60.8605 87.7632 61.3572 86.9989 61.7072C86.2347 62.0459 85.3243 62.2153 84.2679 62.2153H80.677L81.8908 60.979V65.4838H79.1598ZM81.8908 61.2838L80.677 59.9798H84.1161C84.9591 59.9798 85.5884 59.7992 86.0043 59.4379C86.4201 59.0766 86.628 58.5742 86.628 57.9306C86.628 57.2758 86.4201 56.7677 86.0043 56.4064C85.5884 56.0451 84.9591 55.8645 84.1161 55.8645H80.677L81.8908 54.5605V61.2838ZM97.2391 65.6871C96.3062 65.6871 95.4408 65.5347 94.6429 65.2298C93.8561 64.925 93.1706 64.4959 92.5861 63.9427C92.013 63.3895 91.5634 62.7403 91.2375 61.9951C90.9228 61.25 90.7654 60.4371 90.7654 59.5564C90.7654 58.6758 90.9228 57.8629 91.2375 57.1177C91.5634 56.3726 92.0186 55.7234 92.603 55.1701C93.1874 54.6169 93.873 54.1879 94.6597 53.883C95.4465 53.5782 96.3006 53.4258 97.2222 53.4258C98.155 53.4258 99.0092 53.5782 99.7847 53.883C100.571 54.1879 101.251 54.6169 101.825 55.1701C102.409 55.7234 102.864 56.3726 103.19 57.1177C103.516 57.8516 103.679 58.6645 103.679 59.5564C103.679 60.4371 103.516 61.2556 103.19 62.0121C102.864 62.7572 102.409 63.4064 101.825 63.9597C101.251 64.5016 100.571 64.925 99.7847 65.2298C99.0092 65.5347 98.1607 65.6871 97.2391 65.6871ZM97.2222 63.35C97.7504 63.35 98.2337 63.2597 98.672 63.079C99.1216 62.8984 99.515 62.6387 99.8521 62.3C100.189 61.9613 100.448 61.5605 100.628 61.0976C100.819 60.6347 100.914 60.1209 100.914 59.5564C100.914 58.9919 100.819 58.4782 100.628 58.0153C100.448 57.5524 100.189 57.1516 99.8521 56.8129C99.5262 56.4742 99.1384 56.2145 98.6889 56.0338C98.2393 55.8532 97.7504 55.7629 97.2222 55.7629C96.694 55.7629 96.2051 55.8532 95.7555 56.0338C95.3172 56.2145 94.9295 56.4742 94.5923 56.8129C94.2551 57.1516 93.991 57.5524 93.7999 58.0153C93.6201 58.4782 93.5302 58.9919 93.5302 59.5564C93.5302 60.1097 93.6201 60.6234 93.7999 61.0976C93.991 61.5605 94.2495 61.9613 94.5754 62.3C94.9126 62.6387 95.306 62.8984 95.7555 63.079C96.2051 63.2597 96.694 63.35 97.2222 63.35ZM105.732 65.4838V53.629H110.84C111.896 53.629 112.806 53.804 113.571 54.154C114.335 54.4927 114.925 54.9838 115.341 55.6274C115.757 56.2709 115.964 57.0387 115.964 57.9306C115.964 58.8113 115.757 59.5734 115.341 60.2169C114.925 60.8492 114.335 61.3347 113.571 61.6734C112.806 62.0121 111.896 62.1814 110.84 62.1814H107.249L108.463 60.979V65.4838H105.732ZM113.233 65.4838L110.283 61.1822H113.2L116.184 65.4838H113.233ZM108.463 61.2838L107.249 59.9967H110.688C111.531 59.9967 112.16 59.8161 112.576 59.4548C112.992 59.0822 113.2 58.5742 113.2 57.9306C113.2 57.2758 112.992 56.7677 112.576 56.4064C112.16 56.0451 111.531 55.8645 110.688 55.8645H107.249L108.463 54.5605V61.2838ZM120.408 65.4838V55.8645H116.632V53.629H126.916V55.8645H123.139V65.4838H120.408Z" fill="white"/>
</svg>
