<svg width="27" height="27" viewBox="0 0 27 27" fill="none" xmlns="http://www.w3.org/2000/svg">
<path d="M1.18863 25.9983L2.88636 19.2066C1.02152 17.1196 0 14.5292 0 11.8652C0 8.67586 1.41249 5.68334 3.97712 3.43928C6.51164 1.22133 9.87493 0 13.4473 0C17.0243 0 20.4051 1.22027 22.9669 3.43638C25.5677 5.68624 27 8.67976 27 11.8652C27 15.0507 25.5677 18.0442 22.9669 20.2941C20.405 22.5101 17.0243 23.7305 13.4473 23.7305C11.5161 23.7305 9.64359 23.3687 7.87577 22.6546L1.18863 25.9983ZM13.4473 1.58203C6.90472 1.58203 1.58203 6.19508 1.58203 11.8652C1.58203 14.2583 2.5572 16.5916 4.32812 18.4352L4.63113 18.7505L3.55746 23.0447L7.82241 20.9124L8.16086 21.0589C9.82937 21.7819 11.6082 22.1484 13.4473 22.1484C20.0479 22.1484 25.418 17.5354 25.418 11.8652C25.418 6.19508 20.0479 1.58203 13.4473 1.58203Z" fill="#F9CC0B"/>
<path d="M7.11914 7.91016H19.7754V9.49219H7.11914V7.91016ZM7.11914 11.0742H19.7754V12.6562H7.11914V11.0742ZM7.11914 14.2383H16.6113V15.8203H7.11914V14.2383Z" fill="#F9CC0B"/>
</svg>
