<svg width="22" height="22" viewBox="0 0 22 22" fill="none" xmlns="http://www.w3.org/2000/svg">
<path d="M2.33055 2.16541H7.19182L8.75872 6.08266L6.24157 7.76076C5.94036 7.96157 5.75944 8.29962 5.75944 8.66162C5.76219 8.76296 5.75944 8.6627 5.75944 8.6627V8.66378L5.75945 8.66628L5.75948 8.67169L5.75964 8.68511C5.75981 8.69508 5.76008 8.7072 5.76053 8.72139C5.76145 8.74975 5.76311 8.78646 5.76607 8.83095C5.772 8.91984 5.78316 9.03992 5.80415 9.18695C5.84612 9.48068 5.92756 9.88302 6.08568 10.3573C6.40316 11.3098 7.02699 12.543 8.24197 13.758C9.45689 14.973 10.6901 15.5968 11.6426 15.9143C12.117 16.0724 12.5193 16.1538 12.8131 16.1958C12.96 16.2168 13.0802 16.228 13.169 16.2339C13.2135 16.2369 13.2502 16.2385 13.2786 16.2395C13.2928 16.2399 13.3049 16.2402 13.3149 16.2403L13.3282 16.2405H13.3337H13.3361H13.3373C13.3373 16.2405 13.4581 16.2339 13.3384 16.2405C13.7485 16.2405 14.1233 16.0088 14.3067 15.642L15.0318 14.1918L19.8346 14.9923V19.6695C17.5489 20 11.3759 20.3258 6.52503 15.475C1.6742 10.6241 1.99999 4.4511 2.33055 2.16541ZM8.00459 9.18792L9.95991 7.88438C10.8119 7.31637 11.1496 6.2292 10.7692 5.27845L9.20235 1.3612C8.87351 0.539078 8.07727 0 7.19182 0H2.27398C1.29033 0 0.364429 0.683358 0.202944 1.75062C-0.164428 4.17869 -0.664463 11.3478 4.99386 17.0061C10.6522 22.6644 17.8213 22.1644 20.2494 21.7971C21.3166 21.6355 22 20.7096 22 19.726V14.9923C22 13.9337 21.2347 13.0304 20.1906 12.8563L15.3878 12.0559C14.4501 11.8997 13.5202 12.3732 13.0951 13.2235L12.7199 13.9738C12.602 13.9448 12.4704 13.9076 12.3274 13.86C11.6558 13.6362 10.7235 13.1772 9.77315 12.2269C8.8227 11.2765 8.36383 10.3442 8.13997 9.67265C8.07947 9.49119 8.03592 9.32792 8.00459 9.18792Z" fill="#EF3124"/>
</svg>
